<svg id="very-unsatisfied" enable-background="new 0 0 300 300" height="512" viewBox="0 0 300 300" width="512" xmlns="http://www.w3.org/2000/svg"><path d="m209.883 93.516c-1.953 0-3.906-.703-5.445-2.141-7.141-6.633-15.312-11.844-24.281-15.5-4.094-1.664-6.062-6.328-4.391-10.422 1.656-4.102 6.359-6.07 10.422-4.391 10.766 4.383 20.57 10.641 29.141 18.594 3.234 3 3.422 8.062.414 11.305-1.571 1.695-3.712 2.555-5.86 2.555z" fill="#d8b400"/><path d="m253.828 89.805c-2.227-3.82-7.125-5.117-10.938-2.891-3.812 2.219-5.117 7.117-2.891 10.938 9.156 15.758 14 33.789 14 52.148 0 57.344-46.656 104-104 104s-103.999-46.656-103.999-104 46.656-104 104-104c28.703 0 55.422 11.438 75.234 32.203 3.047 3.203 8.125 3.312 11.312.266 3.195-3.055 3.312-8.117.266-11.312-22.867-23.962-53.695-37.157-86.812-37.157-66.172 0-120 53.828-120 120s53.828 120 120 120 120-53.828 120-120c0-21.18-5.594-41.992-16.172-60.195z"/><path d="m182 134c-5.891 0-10.667 15.442-10.667 21.333 0 5.892 4.775 10.667 10.667 10.667s10.667-4.775 10.667-10.667c0-5.891-4.776-21.333-10.667-21.333z"/><path d="m182 206c-5.891 0-10.667 15.442-10.667 21.333 0 5.892 4.775 10.667 10.667 10.667s10.667-4.775 10.667-10.667c0-5.891-4.776-21.333-10.667-21.333z"/><path d="m126 102c0-4.422-3.578-8-8-8s-8 3.578-8 8c0 4.414-3.586 8-8 8s-8-3.586-8-8c0-4.422-3.578-8-8-8s-8 3.578-8 8c0 10.86 7.296 19.951 17.21 22.902-2.35 4.898-3.877 11.135-3.877 14.431 0 5.892 4.776 10.667 10.667 10.667s10.667-4.775 10.667-10.667c0-3.296-1.527-9.532-3.877-14.431 9.914-2.951 17.21-12.042 17.21-22.902z"/><path d="m190 94c-4.422 0-8 3.578-8 8 0 4.414-3.586 8-8 8s-8-3.586-8-8c0-4.422-3.578-8-8-8s-8 3.578-8 8c0 13.234 10.766 24 24 24s24-10.766 24-24c0-4.422-3.578-8-8-8z"/><path d="m200.773 203.961c3.289-2.953 3.57-8.008.625-11.297-15.179-16.945-36.828-26.664-59.398-26.664s-44.219 9.719-59.398 26.664c-2.945 3.289-2.664 8.344.625 11.297 3.281 2.953 8.352 2.672 11.297-.625 12.148-13.563 29.453-21.336 47.476-21.336s35.328 7.773 47.477 21.336c1.586 1.766 3.766 2.664 5.961 2.664 1.906 0 3.812-.672 5.335-2.039z"/></svg>