<?xml version="1.0" encoding="UTF-8" standalone="no"?>
<!-- Created with Inkscape (http://www.inkscape.org/) -->

<svg
   xmlns:dc="http://purl.org/dc/elements/1.1/"
   xmlns:cc="http://creativecommons.org/ns#"
   xmlns:rdf="http://www.w3.org/1999/02/22-rdf-syntax-ns#"
   xmlns:svg="http://www.w3.org/2000/svg"
   xmlns="http://www.w3.org/2000/svg"
   xmlns:sodipodi="http://sodipodi.sourceforge.net/DTD/sodipodi-0.dtd"
   xmlns:inkscape="http://www.inkscape.org/namespaces/inkscape"
   width="287.85233mm"
   height="232.30026mm"
   viewBox="0 0 1019.9492 823.11119"
   id="svg2"
   version="1.1"
   inkscape:version="0.91 r13725"
   sodipodi:docname="Coffee on cloud no 9.svg">
  <title
     id="title3362">Coffee on cloud no.  9</title>
  <defs
     id="defs4" />
  <sodipodi:namedview
     id="base"
     pagecolor="#ffffff"
     bordercolor="#666666"
     borderopacity="1.0"
     inkscape:pageopacity="0.0"
     inkscape:pageshadow="2"
     inkscape:zoom="0.5"
     inkscape:cx="20.394418"
     inkscape:cy="384.8123"
     inkscape:document-units="px"
     inkscape:current-layer="layer2"
     showgrid="false"
     fit-margin-top="0"
     fit-margin-left="0"
     fit-margin-right="0"
     fit-margin-bottom="0"
     inkscape:window-width="1366"
     inkscape:window-height="744"
     inkscape:window-x="0"
     inkscape:window-y="24"
     inkscape:window-maximized="1" />
  <metadata
     id="metadata7">
    <rdf:RDF>
      <cc:Work
         rdf:about="">
        <dc:format>image/svg+xml</dc:format>
        <dc:type
           rdf:resource="http://purl.org/dc/dcmitype/StillImage" />
        <dc:title>Coffee on cloud no.  9</dc:title>
        <dc:date>2019</dc:date>
        <dc:creator>
          <cc:Agent>
            <dc:title>Doodleguy</dc:title>
          </cc:Agent>
        </dc:creator>
        <dc:rights>
          <cc:Agent>
            <dc:title>Public Domain</dc:title>
          </cc:Agent>
        </dc:rights>
        <cc:license
           rdf:resource="http://creativecommons.org/publicdomain/zero/1.0/" />
      </cc:Work>
      <cc:License
         rdf:about="http://creativecommons.org/publicdomain/zero/1.0/">
        <cc:permits
           rdf:resource="http://creativecommons.org/ns#Reproduction" />
        <cc:permits
           rdf:resource="http://creativecommons.org/ns#Distribution" />
        <cc:permits
           rdf:resource="http://creativecommons.org/ns#DerivativeWorks" />
      </cc:License>
    </rdf:RDF>
  </metadata>
  <g
     inkscape:groupmode="layer"
     id="layer2"
     inkscape:label="bund">
    <path
       style="color:#000000;clip-rule:nonzero;display:inline;overflow:visible;visibility:visible;opacity:1;isolation:auto;mix-blend-mode:normal;color-interpolation:sRGB;color-interpolation-filters:linearRGB;solid-color:#000000;solid-opacity:1;fill:#55ddff;fill-opacity:1;fill-rule:nonzero;stroke:none;stroke-width:0.99999988;stroke-linecap:butt;stroke-linejoin:miter;stroke-miterlimit:4;stroke-dasharray:none;stroke-dashoffset:0;stroke-opacity:1;color-rendering:auto;image-rendering:auto;shape-rendering:auto;text-rendering:auto;enable-background:accumulate"
       d="m 777.25679,535.81092 c -3.0155,-0.0396 -2.50579,4.4876 -3.64679,6.39788 -4.40843,13.67251 -11.52193,27.41154 -23.242,36.17578 -10.61914,7.17531 -22.118,13.96002 -34.82299,16.50139 -26.98289,2.65874 -54.28083,-2.52827 -79.30518,-12.65381 -17.24144,-6.33105 -34.71009,-12.17588 -52.45449,-16.90904 -15.43087,-2.94565 -31.36376,-1.94124 -46.88996,-0.26419 -17.6227,1.94281 -33.57354,10.36601 -50.79135,13.89374 -5.5195,1.77896 -10.8491,-1.28637 -15.99568,-2.69672 -8.6922,8.3704 -19.20346,15.83005 -31.5261,17.1729 -14.82173,3.06087 -29.85413,5.42041 -45.03981,4.38166 -14.96759,-0.46702 -32.31966,-2.94081 -41.73208,-16.02443 -2.61183,-1.98042 -2.55387,-6.89495 -6.02539,-7.62137 -15.75005,5.70614 -30.32096,15.15773 -47.17094,17.58736 -15.00763,1.84714 -30.75955,3.21543 -45.36533,-1.62475 -18.04224,-4.81124 -36.01999,-11.82947 -49.87444,-24.76004 -4.19575,-3.59659 -8.10527,-7.53246 -12.21122,-11.20396 -14.52538,0.41874 -28.96836,-0.75754 -43.37691,-2.40279 -5.97865,-0.78118 -12.38544,-0.20739 -17.10021,3.94855 -5.85449,2.79127 -11.18259,6.46962 -16.14398,10.65569 -8.51497,5.54749 -17.713855,11.23993 -23.191955,20.04883 -3.108515,5.15361 0.386657,10.76828 3.4654,14.93443 0.46765,1.72471 -2.351193,-0.43773 -2.537672,-1.06027 -2.756207,-2.09752 -2.813478,-6.93632 -6.025386,-8.24777 -5.280728,4.34255 -7.865578,11.26356 -11.327678,17.04032 -4.75728,7.48982 -6.381821,16.3119 -6.238783,25.07248 -0.535037,3.6941 0.322166,8.1353 -1.330026,11.42375 -1.306584,-3.28295 -0.260571,-7.60916 -0.604073,-11.21233 -0.02529,-5.597 0.359659,-11.44005 0.821707,-16.8192 -11.304647,0.30143 -20.972092,7.2571 -30.314477,12.87444 -9.935936,6.04013 -18.139778,14.72209 -23.075623,25.2957 -5.2571139,10.94891 -11.7887814,22.21874 -10.8556126,34.82646 -0.1673471,15.51964 0.4865015,33.06725 12.0428666,44.85497 8.006337,8.36448 16.31586,18.03148 28.332406,20.18176 16.105278,3.75256 32.929693,4.93514 49.382436,3.27806 8.52124,-1.56563 15.29967,-7.54939 23.30357,-10.41016 3.94939,-2.75848 8.66544,-5.29613 11.24303,-9.45033 0.49636,-2.21547 2.87092,1.50843 3.45284,2.19168 7.74792,13.27612 19.96705,23.51202 33.7187,30.21164 9.60772,4.66501 19.16296,10.41891 29.8584,12.03273 14.10994,0.94785 28.40655,1.87416 42.48875,0.31562 12.14412,-3.65454 20.87975,-14.22472 26.14258,-25.33482 2.00759,-4.01974 6.6479,-0.18098 9.46987,0.5399 6.74707,3.10494 14.3383,2.45781 21.54436,2.86133 10.53361,-4.81033 22.21816,-10.93928 26.07623,-22.73911 3.87986,-9.2741 2.72308,-19.47465 1.68465,-29.14287 2.72413,-1.1246 5.82316,1.83019 8.24788,2.97202 0.89604,0.79372 3.29555,1.90221 3.16953,3.09801 -2.53793,0.33772 -5.76384,-3.15913 -7.86412,-0.97098 -0.85634,7.10348 -0.16581,14.52915 -2.50558,21.45229 -1.1256,4.44791 -3.16823,8.64966 -4.58286,12.95061 17.12611,20.56693 37.34042,39.48525 62.36467,49.8884 15.24568,6.95194 33.53521,8.79675 49.31083,2.54603 16.46456,-7.48263 27.84083,-22.26026 39.95396,-35.10602 6.53903,-7.06662 12.24885,-15.25058 19.23967,-21.69922 6.87969,5.18776 11.835,12.73744 19.38895,17.19308 6.54936,3.83784 13.82685,8.32861 21.70202,7.63253 10.70993,-1.82302 19.4784,-8.85799 26.98521,-16.27372 2.78228,-0.90414 3.57015,3.75107 4.97175,5.27112 6.27627,13.07296 16.38409,24.45086 29.15353,31.43508 7.6435,3.62913 16.7976,4.89787 25.01674,2.82227 6.18093,-2.95969 11.93111,-7.72562 15.70591,-13.24777 8.14637,9.9171 14.88878,21.39565 25.87337,28.60764 9.12385,6.8744 20.2405,11.64079 31.68104,12.53773 10.45562,-0.60603 20.27925,-6.18388 27.72741,-13.33008 4.68528,-4.14465 6.79314,-10.35268 11.00864,-14.77539 3.61821,-0.9054 7.40471,-1.92805 9.61771,-5.29437 7.13393,-7.53817 10.38108,-18.21258 9.04022,-28.45842 -0.4495,-3.07054 3.29271,0.0714 4.52564,0.29296 4.98714,3.71725 11.6755,3.45452 16.92107,0.46178 3.28486,-1.59573 5.9395,-4.2608 7.61857,-7.5 2.77615,2.7872 2.55979,7.09827 5.52736,9.8591 11.57664,16.02439 29.435,25.84362 46.73214,34.5345 15.79279,8.03353 33.92829,8.88293 51.28536,9.75291 10.29922,-0.006 22.6145,0.48955 29.9945,-8.11972 3.28893,-2.94047 6.68972,-7.7906 3.75279,-12.14704 -0.98329,-0.86527 -1.22143,-5.10907 0.81614,-2.85575 8.21864,7.45122 20.077,8.22274 30.58314,9.28571 14.22857,0.0984 28.21072,-5.05373 40.16157,-12.51329 15.56729,-11.69084 27.58539,-29.10341 30.94329,-48.46187 1.3148,-9.00826 1.3086,-18.50868 -3.0274,-26.77534 -4.3552,-10.64517 -15.03089,-17.78396 -26.43703,-18.35351 -1.40221,-0.32483 -3.76093,-0.36327 -4.61893,-1.16022 7.91886,-1.30782 16.78007,-1.12269 23.31196,-6.62667 10.996,-8.94079 12.279,-25.8743 6.0463,-37.97294 -3.5446,-8.7885 -12.5314,-13.65326 -21.55276,-14.82142 -17.16828,-2.88828 -34.75678,0.0553 -51.09378,5.55803 -2.532,0.81232 -1.61186,-3.53781 -2.38,-4.84515 -1.34915,-5.29343 -4.68157,-10.88234 -10.67722,-11.46345 -3.15164,-0.44039 -7.83371,-2.46723 -10.32721,0.36273 -0.11872,4.28816 3.98257,7.49935 5.05157,11.54855 2.16607,7.10759 6.78186,12.93994 11.34486,18.61328 8.47971,13.55463 13.41471,30.70679 8.53935,46.41183 -1.16171,3.73458 -4.81021,7.7488 -9.0095,5.49944 -1.92714,-0.84221 -6.38528,-3.72647 -6.72014,0.24274 -0.51178,2.2344 0.22686,6.15486 -0.67521,7.53907 -1.32543,-4.43055 -1.04386,-9.13552 -1.45929,-13.70396 4.33286,1.27616 9.65693,6.20114 14.21457,3.01339 2.82193,-2.36196 4.25986,-5.5846 3.43507,-9.29818 0.13772,-13.03175 0.23129,-27.39702 -8.465,-38.07385 -5.28442,-6.9513 -11.75314,-13.33149 -13.96835,-22.05598 -7.353,-12.15202 -18.56929,-21.36179 -28.4575,-31.37328 -16.95722,-15.64444 -33.37686,-32.00221 -51.65415,-46.12393 -10.58864,-8.04689 -24.57842,-7.72237 -37.08707,-9.9688 -7.71014,-0.89893 -15.441,-2.01337 -23.21285,-2.1336 z m -5.565,165.94447 c 2.03921,3.48615 2.09942,8.16087 4.13564,11.83313 1.48564,4.93241 5.48421,8.66047 6.99857,13.47658 -0.0812,1.93182 -1.86307,-1.65353 -2.21857,-1.89241 -3.63064,-4.69266 -5.61157,-10.49251 -9.10257,-15.18348 -3.20879,0.71007 -4.947,4.73466 -7.454,6.72852 -3.77936,3.95394 -7.55507,7.93298 -11.59736,11.62667 6.257,-8.11174 14.84107,-14.89364 18.69143,-24.60101 0.18736,-0.5735 -0.1555,-1.73072 0.54686,-1.988 z"
       id="path3384"
       inkscape:connector-curvature="0"
       transform="translate(-3.0517582e-5,0)" />
    <path
       style="color:#000000;clip-rule:nonzero;display:inline;overflow:visible;visibility:visible;opacity:1;isolation:auto;mix-blend-mode:normal;color-interpolation:sRGB;color-interpolation-filters:linearRGB;solid-color:#000000;solid-opacity:1;fill:#55ddff;fill-opacity:1;fill-rule:nonzero;stroke:none;stroke-width:0.99999988;stroke-linecap:butt;stroke-linejoin:miter;stroke-miterlimit:4;stroke-dasharray:none;stroke-dashoffset:0;stroke-opacity:1;color-rendering:auto;image-rendering:auto;shape-rendering:auto;text-rendering:auto;enable-background:accumulate"
       d="m 326.2867,714.33265 c -0.21601,0.003 -0.44978,0.007 -0.63121,0.14236 -0.2556,0.17005 -0.3407,0.49068 -0.36412,0.77962 -0.0189,0.2686 -0.0121,0.54024 0.0208,0.80732 0.0297,0.13956 0.21837,0.20415 0.32488,0.10675 0.10534,-0.0933 0.08,-0.25039 0.10546,-0.37623 0.0253,-0.22174 0.0496,-0.44359 0.0744,-0.66538 0.17127,-0.17327 0.37518,-0.30892 0.58565,-0.42892 0.12691,-0.0765 0.11334,-0.28697 -0.0242,-0.34386 -0.026,-0.0184 -0.0615,-0.0142 -0.0916,-0.0217 z"
       id="path3386"
       inkscape:connector-curvature="0"
       transform="translate(-3.0517582e-5,0)" />
    <path
       style="color:#000000;clip-rule:nonzero;display:inline;overflow:visible;visibility:visible;opacity:1;isolation:auto;mix-blend-mode:normal;color-interpolation:sRGB;color-interpolation-filters:linearRGB;solid-color:#000000;solid-opacity:1;fill:#55ddff;fill-opacity:1;fill-rule:nonzero;stroke:none;stroke-width:0.99999988;stroke-linecap:butt;stroke-linejoin:miter;stroke-miterlimit:4;stroke-dasharray:none;stroke-dashoffset:0;stroke-opacity:1;color-rendering:auto;image-rendering:auto;shape-rendering:auto;text-rendering:auto;enable-background:accumulate"
       d="m 925.53638,695.92402 c -0.12938,0.0112 -0.26921,0.0564 -0.34718,0.16706 -0.0592,0.0823 -0.0884,0.2021 -0.0298,0.29235 0.0512,0.0877 0.17368,0.11945 0.26238,0.0712 0.0532,-0.0311 0.0999,-0.0723 0.15463,-0.10118 0.0642,-0.0409 0.14662,-0.0655 0.18228,-0.13869 0.0515,-0.0911 0.0146,-0.21839 -0.0782,-0.26712 -0.043,-0.0262 -0.0951,-0.0295 -0.14413,-0.0236 z"
       id="path3388"
       inkscape:connector-curvature="0"
       transform="translate(-3.0517582e-5,0)" />
    <path
       style="color:#000000;clip-rule:nonzero;display:inline;overflow:visible;visibility:visible;opacity:1;isolation:auto;mix-blend-mode:normal;color-interpolation:sRGB;color-interpolation-filters:linearRGB;solid-color:#000000;solid-opacity:1;fill:#552200;fill-opacity:1;fill-rule:nonzero;stroke:none;stroke-width:0.99999988;stroke-linecap:butt;stroke-linejoin:miter;stroke-miterlimit:4;stroke-dasharray:none;stroke-dashoffset:0;stroke-opacity:1;color-rendering:auto;image-rendering:auto;shape-rendering:auto;text-rendering:auto;enable-background:accumulate"
       d="m 487.75799,383.12123 c -6.38599,1.7555 -11.82726,5.96147 -17.76008,8.82068 -11.35567,6.26961 -24.32498,8.57068 -36.75332,11.80056 -22.39869,5.03149 -45.57105,6.42876 -68.47586,5.29868 -5.3781,-0.0285 -10.62635,-1.66134 -15.97266,-1.66992 -3.78936,0.9286 -4.45104,5.72646 -5.3736,8.89767 -2.43202,15.14498 -1.51237,30.58397 -1.69042,45.86303 0.39235,23.48533 -0.007,47.09679 3.02984,70.43364 2.89228,13.79741 2.95633,28.00252 5.46192,41.85254 1.84967,8.7483 9.50665,15.00351 17.88654,17.18405 9.32446,2.61949 18.86656,5.42538 28.66393,4.61833 16.22081,-0.27778 32.49575,-2.14334 48.22656,-6.1437 12.16019,-3.81055 23.06451,-12.01287 28.98242,-23.4412 7.45812,-13.58665 9.88664,-29.18297 12.54049,-44.25987 6.38752,-41.96591 7.32092,-84.6502 4.65025,-126.97128 -0.62559,-3.94472 -0.17964,-8.46551 -2.33398,-11.96485 -0.29927,-0.24926 -0.70072,-0.33296 -1.08203,-0.31836 z"
       id="path3390"
       inkscape:connector-curvature="0"
       transform="translate(-3.0517582e-5,0)" />
    <path
       style="color:#000000;clip-rule:nonzero;display:inline;overflow:visible;visibility:visible;opacity:1;isolation:auto;mix-blend-mode:normal;color-interpolation:sRGB;color-interpolation-filters:linearRGB;solid-color:#000000;solid-opacity:1;fill:#552200;fill-opacity:1;fill-rule:nonzero;stroke:none;stroke-width:0.99999988;stroke-linecap:butt;stroke-linejoin:miter;stroke-miterlimit:4;stroke-dasharray:none;stroke-dashoffset:0;stroke-opacity:1;color-rendering:auto;image-rendering:auto;shape-rendering:auto;text-rendering:auto;enable-background:accumulate"
       d="m 330.1701,431.11147 c -9.20949,1.17611 -17.14035,7.00106 -23.79112,13.1474 -12.0042,11.71369 -17.04673,28.89205 -16.68399,45.3477 -0.24946,8.42169 1.23436,16.9086 5.18925,24.41037 6.90181,14.91361 16.59725,29.87811 31.94187,37.13284 5.07941,2.97697 11.18173,4.59622 17.01586,3.38649 2.80224,-2.25002 1.41835,-6.48941 0.6377,-9.41797 -1.2568,-3.21887 -5.34506,-2.23185 -7.9336,-3.47265 -13.2659,-4.31885 -22.48896,-16.31193 -28.30078,-28.47559 -4.97554,-11.7429 -5.36317,-25.28176 -2.08105,-37.51562 3.40635,-11.59239 12.15595,-22.02618 23.7207,-25.99512 2.95862,-1.02577 6.24112,-1.12936 9.13574,-2.06836 -0.50582,-4.36219 1.0968,-9.39461 -1.35156,-13.3457 -1.73549,-2.24724 -4.73848,-3.22679 -7.49902,-3.13379 z"
       id="path3392"
       inkscape:connector-curvature="0"
       transform="translate(-3.0517582e-5,0)" />
    <path
       style="color:#000000;clip-rule:nonzero;display:inline;overflow:visible;visibility:visible;opacity:1;isolation:auto;mix-blend-mode:normal;color-interpolation:sRGB;color-interpolation-filters:linearRGB;solid-color:#000000;solid-opacity:1;fill:#2b1100;fill-opacity:1;fill-rule:nonzero;stroke:none;stroke-width:0.99999988;stroke-linecap:butt;stroke-linejoin:miter;stroke-miterlimit:4;stroke-dasharray:none;stroke-dashoffset:0;stroke-opacity:1;color-rendering:auto;image-rendering:auto;shape-rendering:auto;text-rendering:auto;enable-background:accumulate"
       d="m 419.99236,361.99233 c -15.98045,0.19981 -32.47646,2.23197 -46.59375,10.26074 -7.66257,4.04458 -14.90813,9.59067 -18.68945,17.60547 -2.11379,4.40447 -5.14137,8.94521 -4.96973,13.98828 2.17516,1.93918 5.66719,1.71336 8.43653,2.17676 17.91542,0.2564 35.88098,0.29852 53.75781,-1.0293 12.57212,-1.35983 25.04099,-4.04063 37.08203,-7.88672 10.99166,-4.39151 21.68417,-9.60951 31.99093,-15.42311 1.42874,-0.65896 3.68762,-2.5455 1.57938,-3.88353 -7.48542,-5.49412 -16.93669,-7.15932 -25.6409,-9.86673 -12.0855,-3.18774 -24.3322,-6.47527 -36.95285,-5.94186 z"
       id="path3394"
       inkscape:connector-curvature="0"
       transform="translate(-3.0517582e-5,0)" />
    <path
       style="color:#000000;clip-rule:nonzero;display:inline;overflow:visible;visibility:visible;opacity:1;isolation:auto;mix-blend-mode:normal;color-interpolation:sRGB;color-interpolation-filters:linearRGB;solid-color:#000000;solid-opacity:1;fill:#ffe6d5;fill-opacity:1;fill-rule:nonzero;stroke:none;stroke-width:0.99999988;stroke-linecap:butt;stroke-linejoin:miter;stroke-miterlimit:4;stroke-dasharray:none;stroke-dashoffset:0;stroke-opacity:1;color-rendering:auto;image-rendering:auto;shape-rendering:auto;text-rendering:auto;enable-background:accumulate"
       d="m 492.55843,102.78712 c -4.20649,1.64697 -6.91682,5.77665 -10.29297,8.63965 -2.90527,2.87174 -5.81054,5.74348 -8.71582,8.61523 -13.16264,-0.95665 -26.46086,-3.63702 -38.39551,-9.39063 -5.09731,-3.02726 -10.3695,-7.07514 -16.53613,-7.15332 -1.83825,-0.2159 -3.40963,2.17534 -1.66797,3.38868 3.94834,2.92592 10.95675,2.5469 12.44532,8.20019 1.14305,4.40468 -0.60862,9.14634 -4.30525,11.81886 -4.30128,4.29842 -9.85338,7.20997 -15.9893,7.58453 -5.43467,1.11803 -11.57557,1.01516 -16.28163,4.28509 -2.7477,3.1428 -0.8776,7.78951 -0.51381,11.44645 2.92306,13.34632 5.17125,27.07247 4.41225,40.7557 -0.31974,5.34188 -2.0919,10.9969 -6.94378,13.85846 -3.47059,2.57959 -7.06849,5.17677 -11.13044,6.53704 -4.7826,4.15645 -8.30564,9.70746 -11.27512,15.26852 -2.70653,4.14852 -1.01762,9.33895 -1.56882,13.9964 -0.32881,14.29454 -0.0429,28.68719 3.01523,42.71424 2.6385,12.71284 5.5106,25.54061 10.64393,37.50575 6.12176,12.07425 14.35546,23.14563 24.97213,31.63566 2.86661,2.49427 6.15186,4.84617 10.1521,4.65385 19.56706,1.619 38.76997,6.55518 57.35163,12.75721 8.78683,2.84395 16.6488,7.86996 23.55755,13.93908 2.09515,2.24614 5.3801,2.53874 7.98633,1.04199 9.79122,-3.69801 15.61589,-13.03983 21.35351,-21.21484 11.32762,-17.33408 18.33937,-37.20685 22.31934,-57.43946 1.92547,-12.70417 2.49168,-26.12925 -2.27354,-38.31253 -3.33751,-10.25111 -8.85261,-19.58126 -13.87303,-29.03175 -4.29325,-9.51289 -6.95119,-19.83038 -6.91593,-30.29146 -8.09501,-9.46943 -18.16186,-17.3629 -24.92481,-27.9043 -6.78743,-12.03345 -12.32697,-25.73239 -10.30381,-39.79388 1.14269,-11.59572 6.10857,-22.65914 6.20323,-34.3858 -0.11323,-1.42688 -0.75397,-3.66761 -2.50488,-3.72461 z m -72.62207,41.55371 c 3.0875,0.23019 6.839,-1.08055 8.57617,2.2832 0.58898,0.85188 2.35112,2.08634 1.9961,3.06348 -3.22889,-1.48514 -5.9623,-4.9199 -9.9378,-3.84969 -5.01269,-0.0509 -10.65076,2.65761 -11.45576,8.0909 -0.40014,1.14779 -0.18522,3.65633 -1.47266,3.90527 -2.22587,-5.29722 2.17907,-10.96351 6.36817,-13.49316 1.97526,0 3.95052,0 5.92578,0 z m 46.61719,1.11621 c 5.69843,0.81959 9.40878,6.02226 12.52148,10.40527 1.70762,3.13029 4.41588,6.58167 3.70898,10.34278 -1.02148,1.38937 -1.52093,-2.06991 -1.9414,-2.56153 -2.92413,-5.93861 -5.93538,-13.1451 -12.60351,-15.62695 -3.03348,-1.11527 -6.02979,1.27901 -8.55079,1.90234 1.69886,-2.0009 4.09508,-4.30181 6.86524,-4.46191 z m -6.6582,30.75 c 1.14998,1.10786 -0.92079,2.97959 -1.37793,4.10937 -2.68954,4.46286 -5.72672,9.0998 -6.667,14.28907 0.40483,3.36905 4.91249,2.94694 7.25977,4.06738 8.07238,2.89716 10.94019,12.02998 13.15184,19.48332 1.19928,2.97977 1.88734,5.87771 -0.85157,8.22703 -3.09826,4.68953 -6.37125,9.2748 -10.33347,13.27402 -5.56212,-1.56057 -7.49406,-7.5396 -9.17992,-12.41822 -3.65297,-12.17579 -5.84409,-25.78349 -0.71677,-37.89009 2.1909,-4.67768 4.40098,-9.75777 8.44942,-13.09403 0.0842,-0.0303 0.17482,-0.0597 0.26563,-0.0478 z m -39.89942,2.48633 c 2.02938,5.86094 1.50346,12.32864 2.00185,18.4548 0.32515,4.70455 0.23116,9.40018 -1.10341,13.94168 -1.52791,12.44714 5.05787,24.41601 3.49219,36.80762 -0.6334,2.7833 -3.06355,5.00512 -6.05469,4.27344 -3.35694,0.2224 -7.1632,-0.70391 -8.55469,-4.18262 -3.52303,-7.46933 -3.97396,-16.08408 -3.30634,-24.19448 0.96171,-8.65201 8.38511,-14.26109 11.96064,-21.70103 2.17495,-7.09101 0.58016,-14.70099 1.33984,-21.97363 0.0762,-0.4094 0.007,-1.2523 0.22461,-1.42578 z m 15.35938,46.42968 c 1.41859,2.33811 -0.29345,5.48421 -0.38965,8.0293 -3.38964,20.05047 -9.30519,39.67461 -11.22168,59.96192 -0.60784,3.27576 3.70609,3.003 5.77637,3.29882 2.68639,0.052 5.77597,1.17204 7.54101,-1.55273 0.89076,-0.57622 2.69087,-2.51206 3.6084,-1.35938 -1.01904,3.29306 -4.61905,5.3817 -7.99023,5.06739 -3.7681,-0.15109 -8.80688,0.96446 -11.4043,-2.5293 -1.15429,-3.33707 0.68278,-7.00999 0.96322,-10.41296 4.02419,-19.4377 8.13948,-38.91257 11.90787,-58.37122 0.28637,-0.67143 0.42233,-1.88671 1.20899,-2.13184 z m -40.97266,26.98438 c 2.7755,0.37103 6.12519,1.48358 7.7666,3.86328 -1.80663,0.50095 -5.25645,-2.23689 -6.22949,0.43848 0.49467,7.49454 3.27939,14.67897 5.03395,21.95149 3.96208,12.99292 7.44115,27.42581 18.27616,36.59456 2.65155,2.96556 6.71591,4.48399 10.59809,3.24789 6.31895,-4.21225 11.33292,-10.19826 17.23992,-14.98374 8.25563,-7.42202 18.25466,-13.34953 29.44465,-14.72622 4.36524,-1.27447 8.51937,0.64466 12.30469,2.64258 1.02248,0.79024 2.88733,0.34101 2.08984,-1.20606 -0.47713,-2.16184 -2.50689,-4.45935 -2.07422,-6.59863 4.70994,3.09358 5.71999,9.62063 5.03613,14.79395 -0.21367,1.43877 -1.34512,4.23716 -3.09277,3.56347 -0.0611,-2.40066 1.83031,-5.31005 0.0908,-7.51269 -3.34756,-1.34942 -6.64575,-3.15883 -10.21191,-3.89551 -13.9186,0.31993 -26.15106,8.54311 -35.89746,17.85254 -4.72664,4.0122 -8.92003,8.85925 -14.24414,12.05664 -4.2903,1.38979 -8.89389,-0.0358 -12.02126,-3.18786 -11.01006,-8.56759 -14.82892,-22.70089 -18.68584,-35.42978 -2.50681,-8.19855 -4.00683,-16.79199 -7.38763,-24.68705 -1.72847,-1.96969 -3.67649,1.13186 -4.38086,2.52051 -0.32455,0.82834 -1.5446,1.84525 -1.63672,0.28125 -1.06961,-4.29073 4.53097,-7.18039 7.98145,-7.5791 z"
       id="path3396"
       inkscape:connector-curvature="0"
       transform="translate(-3.0517582e-5,0)" />
    <path
       style="color:#000000;clip-rule:nonzero;display:inline;overflow:visible;visibility:visible;opacity:1;isolation:auto;mix-blend-mode:normal;color-interpolation:sRGB;color-interpolation-filters:linearRGB;solid-color:#000000;solid-opacity:1;fill:#ffffff;fill-opacity:1;fill-rule:nonzero;stroke:none;stroke-width:0.99999988;stroke-linecap:butt;stroke-linejoin:miter;stroke-miterlimit:4;stroke-dasharray:none;stroke-dashoffset:0;stroke-opacity:1;color-rendering:auto;image-rendering:auto;shape-rendering:auto;text-rendering:auto;enable-background:accumulate"
       d="m 455.14616,200.38585 c -2.04492,-0.004 -4.86503,0.94765 -4.75733,3.4253 -0.16895,5.94404 0.71617,11.93244 2.33926,17.64506 0.64888,2.17925 2.50275,4.01046 4.84043,4.18892 2.86021,0.86175 4.88986,3.36241 7.45117,4.75781 1.66358,-1.07006 2.54687,-3.0711 3.72844,-4.6231 0.67844,-1.32257 1.97028,-2.52708 2.17439,-4.01215 -1.81232,-5.96635 -3.09456,-12.47006 -7.31738,-17.29785 -2.28724,-2.1193 -5.18329,-4.22209 -8.45898,-4.08399 z"
       id="path3398"
       inkscape:connector-curvature="0"
       transform="translate(-3.0517582e-5,0)" />
    <path
       style="color:#000000;clip-rule:nonzero;display:inline;overflow:visible;visibility:visible;opacity:1;isolation:auto;mix-blend-mode:normal;color-interpolation:sRGB;color-interpolation-filters:linearRGB;solid-color:#000000;solid-opacity:1;fill:#ffffff;fill-opacity:1;fill-rule:nonzero;stroke:none;stroke-width:0.99999988;stroke-linecap:butt;stroke-linejoin:miter;stroke-miterlimit:4;stroke-dasharray:none;stroke-dashoffset:0;stroke-opacity:1;color-rendering:auto;image-rendering:auto;shape-rendering:auto;text-rendering:auto;enable-background:accumulate"
       d="m 416.41911,211.31017 c -2.14249,0.55873 -3.30174,2.78405 -4.7031,4.32153 -3.25042,3.84554 -2.89594,9.20529 -3.44273,13.90526 0.0627,1.55372 -0.66262,3.37173 0.16975,4.78981 2.56463,1.24441 5.53808,2.15716 7.52442,4.33692 1.54839,2.01885 0.57383,5.23604 -1.44629,6.54882 -1.09311,0.27088 -2.51971,1.43405 -1.69629,2.64746 1.33136,1.64433 3.39123,2.74007 5.44287,3.18311 1.62887,-0.0241 3.22093,-1.19039 3.97607,-2.59473 0.69276,-3.2325 0.15555,-6.61644 -0.20507,-9.86816 -1.07161,-8.06024 -4.2878,-15.75169 -4.37134,-23.94904 -0.24893,-0.95884 0.17047,-3.17494 -1.24829,-3.32098 z"
       id="path3400"
       inkscape:connector-curvature="0"
       transform="translate(-3.0517582e-5,0)" />
    <path
       style="color:#000000;clip-rule:nonzero;display:inline;overflow:visible;visibility:visible;opacity:1;isolation:auto;mix-blend-mode:normal;color-interpolation:sRGB;color-interpolation-filters:linearRGB;solid-color:#000000;solid-opacity:1;fill:#ffe6d5;fill-opacity:1;fill-rule:nonzero;stroke:none;stroke-width:0.99999988;stroke-linecap:butt;stroke-linejoin:miter;stroke-miterlimit:4;stroke-dasharray:none;stroke-dashoffset:0;stroke-opacity:1;color-rendering:auto;image-rendering:auto;shape-rendering:auto;text-rendering:auto;enable-background:accumulate"
       d="m 538.56315,455.61681 c -6.34119,0.47629 -12.48371,2.54282 -18.28536,5.0642 -7.63261,3.75206 -14.25877,9.32342 -20.14482,15.40455 -2.17957,2.31203 -3.89995,5.01498 -6.46533,6.94043 -1.70113,2.09214 -1.11196,5.05566 -1.07387,7.54623 0.11792,0.72879 0.14387,2.32274 1.15102,2.2941 2.63948,-2.09501 4.1319,-5.28639 6.25439,-7.85254 4.09138,-5.16451 8.94295,-9.7961 14.39893,-13.46728 7.21283,-4.076 15.54172,-5.569 23.62207,-6.83692 3.01858,-0.59161 6.26664,-0.36667 9.13086,-1.58789 1.25325,-0.94466 0.88252,-2.93122 0.35205,-4.18262 -1.86646,-2.86392 -5.82819,-3.28884 -8.93994,-3.32226 z"
       id="path3402"
       inkscape:connector-curvature="0"
       transform="translate(-3.0517582e-5,0)" />
    <path
       style="color:#000000;clip-rule:nonzero;display:inline;overflow:visible;visibility:visible;opacity:1;isolation:auto;mix-blend-mode:normal;color-interpolation:sRGB;color-interpolation-filters:linearRGB;solid-color:#000000;solid-opacity:1;fill:#ffe6d5;fill-opacity:1;fill-rule:nonzero;stroke:none;stroke-width:0.99999988;stroke-linecap:butt;stroke-linejoin:miter;stroke-miterlimit:4;stroke-dasharray:none;stroke-dashoffset:0;stroke-opacity:1;color-rendering:auto;image-rendering:auto;shape-rendering:auto;text-rendering:auto;enable-background:accumulate"
       d="m 521.61189,453.9771 c -6.39466,0.26723 -12.75972,2.4223 -17.81915,6.38425 -3.25585,2.59145 -6.33951,5.5162 -8.60125,9.03481 -1.19766,1.99818 -2.17232,4.46557 -1.50855,6.80481 0.30371,0.8715 1.36786,0.51645 1.8916,0.0779 2.65941,-2.12664 4.89323,-4.73289 7.46655,-6.96191 4.39713,-3.90657 9.23333,-7.31017 14.33911,-10.22436 2.00823,-1.22088 4.26753,-1.91153 6.28809,-3.09864 0.51969,-0.27797 1.33659,-1.04903 0.68897,-1.61084 -0.77999,-0.54221 -1.8519,-0.35481 -2.74537,-0.406 z"
       id="path3404"
       inkscape:connector-curvature="0"
       transform="translate(-3.0517582e-5,0)" />
    <path
       style="color:#000000;clip-rule:nonzero;display:inline;overflow:visible;visibility:visible;opacity:1;isolation:auto;mix-blend-mode:normal;color-interpolation:sRGB;color-interpolation-filters:linearRGB;solid-color:#000000;solid-opacity:1;fill:#ffe6d5;fill-opacity:1;fill-rule:nonzero;stroke:none;stroke-width:0.99999988;stroke-linecap:butt;stroke-linejoin:miter;stroke-miterlimit:4;stroke-dasharray:none;stroke-dashoffset:0;stroke-opacity:1;color-rendering:auto;image-rendering:auto;shape-rendering:auto;text-rendering:auto;enable-background:accumulate"
       d="m 510.99861,450.80351 c -1.67253,-0.0377 -3.08936,1.04273 -4.52163,1.76011 -3.76593,2.26814 -7.3673,4.90291 -10.37102,8.12983 -0.4814,0.65611 -1.35271,1.4026 -1.10857,2.30367 0.47017,0.62773 1.34793,0.0168 1.88159,-0.21558 3.43156,-1.97319 6.28617,-4.79755 9.70509,-6.78641 1.65966,-1.0897 3.49449,-1.781 5.3071,-2.54196 0.71159,-0.41144 1.85707,-0.90291 1.78005,-1.88745 -0.372,-1.04697 -1.85005,-0.6787 -2.67261,-0.76221 z"
       id="path3406"
       inkscape:connector-curvature="0"
       transform="translate(-3.0517582e-5,0)" />
    <path
       style="color:#000000;clip-rule:nonzero;display:inline;overflow:visible;visibility:visible;opacity:1;isolation:auto;mix-blend-mode:normal;color-interpolation:sRGB;color-interpolation-filters:linearRGB;solid-color:#000000;solid-opacity:1;fill:#ffe6d5;fill-opacity:1;fill-rule:nonzero;stroke:none;stroke-width:0.99999988;stroke-linecap:butt;stroke-linejoin:miter;stroke-miterlimit:4;stroke-dasharray:none;stroke-dashoffset:0;stroke-opacity:1;color-rendering:auto;image-rendering:auto;shape-rendering:auto;text-rendering:auto;enable-background:accumulate"
       d="m 499.74519,449.74077 c -1.86412,0.0631 -3.24187,1.62557 -4.22382,3.05155 -0.48291,0.76731 -1.01174,2.08682 -0.0901,2.73678 0.97727,0.64502 2.02506,-0.29798 2.84229,-0.78882 1.27082,-0.991 2.71917,-1.96089 3.44189,-3.44897 0.36525,-0.72703 -0.31135,-1.45407 -1.04028,-1.4856 -0.30633,-0.0558 -0.61913,-0.0693 -0.92994,-0.0649 z"
       id="path3408"
       inkscape:connector-curvature="0"
       transform="translate(-3.0517582e-5,0)" />
    <path
       style="color:#000000;clip-rule:nonzero;display:inline;overflow:visible;visibility:visible;opacity:1;isolation:auto;mix-blend-mode:normal;color-interpolation:sRGB;color-interpolation-filters:linearRGB;solid-color:#000000;solid-opacity:1;fill:#ff9955;fill-opacity:1;fill-rule:nonzero;stroke:none;stroke-width:0.99999988;stroke-linecap:butt;stroke-linejoin:miter;stroke-miterlimit:4;stroke-dasharray:none;stroke-dashoffset:0;stroke-opacity:1;color-rendering:auto;image-rendering:auto;shape-rendering:auto;text-rendering:auto;enable-background:accumulate"
       d="M 506.44744,1.5300784 C 493.69342,1.1293376 483.31813,9.4552796 472.97726,15.65426 c -11.47867,6.553154 -22.18312,14.389711 -33.35441,21.452343 -2.98889,1.835939 -6.79133,6.158272 -10.27214,4.691273 2.01253,-1.239023 1.87706,-3.482013 -0.0967,-4.666629 -12.65211,-10.703461 -31.95625,-10.859183 -45.8984,-2.552722 -15.56144,7.684696 -29.38867,19.081202 -38.58414,33.919152 -6.02713,9.998991 -12.47038,20.279312 -14.88253,31.840903 -1.03217,5.60819 0.007,11.97623 4.98427,15.45415 9.19298,8.22665 22.34774,9.18646 32.34973,16.1561 2.44669,1.72364 6.22129,3.61609 6.69997,6.70749 -2.56552,-0.24863 -5.44931,-4.86119 -7.93976,-2.39063 -2.46352,8.08079 -7.88315,15.68624 -15.91207,19.06754 -6.36844,3.55195 -13.91438,8.41234 -15.12053,16.19526 -0.50526,16.17518 5.39445,31.8069 5.38616,47.87334 -0.0205,9.35292 -6.42074,16.77838 -9.104,25.31359 -0.68809,3.76151 3.29396,7.67604 6.93573,7.5503 7.15528,-1.63774 13.05074,-7.31025 20.79605,-6.836 2.59865,0.26404 5.03372,-1.57904 4.29795,-4.39346 -1.03699,-13.30803 6.06702,-26.61599 17.76405,-33.12979 5.93996,-3.33283 13.15152,-7.65495 13.0752,-15.42442 1.20732,-15.93824 -1.59813,-31.7868 -4.42909,-47.38582 -1.02638,-4.33098 1.17989,-9.31283 5.88888,-10.04036 9.05371,-2.24975 19.80411,-1.35914 26.77062,-8.71316 3.30436,-2.90668 7.65339,-8.749 3.60597,-12.73345 -3.73708,-3.27324 -10.96823,-2.43986 -12.8398,-7.75331 0.12019,-4.97256 6.5937,-5.58801 10.12738,-3.70126 9.13881,3.82695 17.50312,9.46838 27.2087,11.9643 7.0107,1.80037 14.62146,4.61633 21.84407,2.72888 7.39361,-5.1011 13.03308,-12.5307 20.19536,-17.757771 3.68765,2.415811 5.56914,6.919311 4.26611,11.193561 -1.66562,16.92441 -9.93497,34.13166 -4.22129,51.12129 3.73294,12.70626 11.40383,23.84412 21.12137,32.72772 11.10069,11.54618 23.41068,21.95804 34.14834,33.81659 0.9372,1.99427 -1.99793,-0.70361 -2.35058,-1.06481 -5.81224,-4.57828 -10.46215,-10.8845 -17.08519,-14.29681 -3.39048,-0.82363 -1.88557,3.91219 -1.76086,5.72177 2.35149,14.07435 9.71607,26.43189 16.07839,38.93644 10.20832,19.40002 8.95647,42.52637 3.06321,63.03609 -0.26677,2.98575 -2.39085,7.09721 -0.28174,9.69648 11.09981,1.32388 20.38547,-6.58329 30.79746,-8.95665 4.98599,-1.46844 12.45553,-3.16588 12.41616,-9.72368 -0.59318,-11.5894 -5.07824,-22.72703 -10.23799,-32.99676 -4.20187,-8.27307 -10.69161,-15.36661 -14.09367,-23.9861 -0.97021,-6.27119 5.50624,-10.24778 10.57763,-12.03836 10.40711,-4.15763 20.9349,-9.44648 28.47345,-17.93496 4.02345,-7.27166 -0.2124,-15.77293 -3.26225,-22.61134 -10.09492,-19.19244 -24.61647,-35.89842 -40.97198,-50.02455 -4.70893,-3.34283 -9.50496,-8.3307 -15.60744,-8.39413 -2.32744,2.13013 0.15775,5.97146 0.46384,8.59519 3.44287,12.19666 8.33591,24.1792 11.19375,36.41796 -6.0954,-14.08705 -9.36681,-29.47353 -16.81589,-42.96778 -2.09911,-1.99989 -3.9225,2.27626 -4.21501,3.91118 -1.42215,4.2301 3.94582,6.42384 5.09752,9.54456 -6.60258,-1.07607 -9.53557,-10.40391 -4.22745,-14.77743 3.53821,-2.21711 3.10559,-5.27469 1.214,-8.57826 -8.39291,-21.51607 -19.02524,-42.196168 -26.66984,-63.966472 -0.72492,-5.25231 -3.15653,-11.790258 0.5538,-16.429186 9.70612,-7.509799 23.95067,-10.437286 29.46826,-22.523289 3.19018,-3.808895 -1.37405,-7.564009 -2.85964,-11.171598 C 531.19216,12.465693 523.11545,3.5634447 512.33493,1.6543745 510.37804,1.4800213 508.40974,1.5150417 506.44744,1.5300784 Z"
       id="path3410"
       inkscape:connector-curvature="0"
       transform="translate(-3.0517582e-5,0)" />
    <path
       style="color:#000000;clip-rule:nonzero;display:inline;overflow:visible;visibility:visible;opacity:1;isolation:auto;mix-blend-mode:normal;color-interpolation:sRGB;color-interpolation-filters:linearRGB;solid-color:#000000;solid-opacity:1;fill:#ff9955;fill-opacity:1;fill-rule:nonzero;stroke:none;stroke-width:0.99999988;stroke-linecap:butt;stroke-linejoin:miter;stroke-miterlimit:4;stroke-dasharray:none;stroke-dashoffset:0;stroke-opacity:1;color-rendering:auto;image-rendering:auto;shape-rendering:auto;text-rendering:auto;enable-background:accumulate"
       d="m 362.36366,244.14732 c -0.0767,0.0192 -0.12588,0.0857 -0.18473,0.13333 -0.0504,0.0436 -0.10712,0.091 -0.11758,0.16107 -0.0242,0.10297 0.0497,0.21563 0.15376,0.23483 0.0563,0.0129 0.11358,-0.005 0.17037,-0.006 0.0836,-0.001 0.16911,-0.0465 0.20213,-0.12607 0.0285,-0.0645 0.0192,-0.13731 0.0225,-0.20586 0.001,-0.10464 -0.0923,-0.19847 -0.19705,-0.19655 -0.0167,-0.002 -0.0329,0.003 -0.0494,0.005 z"
       id="path3412"
       inkscape:connector-curvature="0"
       transform="translate(-3.0517582e-5,0)" />
    <path
       style="color:#000000;clip-rule:nonzero;display:inline;overflow:visible;visibility:visible;opacity:1;isolation:auto;mix-blend-mode:normal;color-interpolation:sRGB;color-interpolation-filters:linearRGB;solid-color:#000000;solid-opacity:1;fill:#00aad4;fill-opacity:1;fill-rule:nonzero;stroke:none;stroke-width:0.99999988;stroke-linecap:butt;stroke-linejoin:miter;stroke-miterlimit:4;stroke-dasharray:none;stroke-dashoffset:0;stroke-opacity:1;color-rendering:auto;image-rendering:auto;shape-rendering:auto;text-rendering:auto;enable-background:accumulate"
       d="m 572.10284,338.57558 c -1.44433,-0.27471 -1.81627,1.24845 -0.68067,2.04199 3.34788,4.60841 8.71693,7.86407 10.84473,13.27246 0.32271,3.43899 -3.74466,5.23665 -6.02051,7.08008 -12.69055,7.56306 -27.40437,11.70104 -38.72265,21.53516 -10.11843,8.29277 -19.19161,18.29257 -24.08594,30.59863 -4.39946,10.39574 -8.12685,21.07387 -12.30273,31.54688 -0.85303,1.71611 0.40382,3.64146 2.38574,3.26171 5.85359,0.62271 11.90618,0.41166 17.41504,2.76758 8.19854,2.25809 17.00089,1.74463 25.01783,4.62473 2.79183,1.13609 4.70603,3.52069 6.0681,6.07351 2.81927,1.35355 5.9586,-0.93012 8.77442,-1.42773 12.032,-3.57608 24.51661,0.48043 36.68662,1.18802 4.29464,0.20442 8.83078,1.2773 13.03603,0.45749 -0.68642,-2.05312 -3.66597,-2.7244 -5.27217,-4.07173 -6.68834,-4.0292 -13.75684,-7.70925 -19.83427,-12.57573 -0.12827,-1.29129 2.07564,-0.0154 2.65234,0.17383 8.41584,4.66783 16.41066,10.11107 24.82559,14.81366 2.34711,1.79095 5.91545,3.06419 7.19004,5.74981 -11.14105,-1.07646 -22.23919,-3.1975 -33.44007,-4.09005 -10.57709,-0.76962 -22.11667,-2.90567 -31.89099,2.49533 -7.03711,2.67241 -14.85472,2.09822 -22.15429,3.83105 -8.69565,1.58111 -17.81108,4.08377 -23.99903,10.83301 -7.10879,6.51336 -12.4141,14.65618 -17.03222,23.02344 -2.18051,6.88355 -2.03468,14.26772 -3.64955,21.29289 -3.23563,16.80176 -5.86217,34.29366 -14.79186,49.21785 -1.70173,2.98048 2.51052,5.07351 4.96582,5.01172 10.99554,0.56321 21.19355,-4.60495 31.57028,-7.43604 9.33677,-2.77205 18.66773,-5.9495 28.15726,-7.98193 14.74135,0.10264 29.54717,-0.20479 44.24834,0.15342 22.44498,7.07743 44.74375,14.56393 66.85534,22.60804 15.77107,5.28791 32.32445,8.36374 48.93818,9.10538 10.83494,0.21432 22.07643,-0.46862 31.86117,-5.60213 12.79857,-6.06542 25.93792,-13.74457 32.96123,-26.56647 0.88066,-3.23387 2.84845,-5.86589 4.62793,-8.6582 7.07328,-13.96047 5.98111,-30.14733 5.70118,-45.32015 -0.0681,-13.34062 -6.34002,-25.45203 -10.66699,-37.75995 -4.00832,-12.19081 -10.34405,-23.55767 -18.82015,-33.20805 -13.04914,-14.98009 -27.93766,-28.26188 -43.10755,-41.04457 -12.72387,-10.97049 -27.84115,-18.5214 -43.02262,-25.4455 -20.78737,-9.53239 -42.27228,-17.42613 -63.59114,-25.65627 -7.08073,-2.33415 -14.21531,-5.26631 -21.69781,-5.91317 z"
       id="path3414"
       inkscape:connector-curvature="0"
       transform="translate(-3.0517582e-5,0)" />
    <path
       style="color:#000000;clip-rule:nonzero;display:inline;overflow:visible;visibility:visible;opacity:1;isolation:auto;mix-blend-mode:normal;color-interpolation:sRGB;color-interpolation-filters:linearRGB;solid-color:#000000;solid-opacity:1;fill:#00aad4;fill-opacity:1;fill-rule:nonzero;stroke:none;stroke-width:0.99999988;stroke-linecap:butt;stroke-linejoin:miter;stroke-miterlimit:4;stroke-dasharray:none;stroke-dashoffset:0;stroke-opacity:1;color-rendering:auto;image-rendering:auto;shape-rendering:auto;text-rendering:auto;enable-background:accumulate"
       d="m 370.18719,315.18589 c -9.59449,1.31419 -18.37335,6.16236 -26.37774,11.38935 -18.49404,12.80589 -31.8296,31.34603 -44.15164,49.82699 -6.37541,9.01159 -11.96833,18.53475 -18.20998,27.63166 -11.39863,19.32013 -22.31583,38.93833 -34.52682,57.77015 -6.46036,10.36554 -13.23411,20.56876 -21.45453,29.63184 -5.88174,7.48994 -9.31944,16.51083 -14.80177,24.27873 -4.29281,7.22752 -9.72801,13.70108 -14.0078,20.91268 -4.34305,8.82961 -2.27807,20.80291 5.98454,26.65064 13.17246,10.79916 28.64195,18.74815 45.12285,23.07965 11.34563,3.33886 23.02486,6.36293 34.96359,5.52742 16.83502,-0.37977 32.65566,-7.05515 47.93373,-13.50425 5.38287,-2.63593 11.21067,-4.64854 16.14666,-8.05326 0.77501,-2.23127 -0.5312,-4.83072 -0.39258,-7.18164 -0.005,-3.2892 -2.65771,-5.86779 -5.88867,-6.06446 -10.93328,-2.07033 -20.94758,-8.09109 -29.10156,-15.56738 -5.48961,-5.94822 -10.89002,-12.25124 -14.22949,-19.6875 -4.83772,-6.44345 -6.8637,-14.55812 -8.73536,-22.24023 -1.1929,-8.51669 -0.54796,-17.29751 0.72657,-25.74903 2.00287,-10.80757 6.24509,-21.66446 14.62027,-29.11326 7.29321,-7.16869 15.61815,-15.63217 26.67074,-15.26369 2.78901,-0.39316 5.21061,1.47535 7.89746,1.55859 2.56493,-1.42406 1.74049,-5.25554 2.38086,-7.70019 0.54757,-11.96091 6.76196,-22.51639 11.92613,-32.99253 3.5497,-7.3923 9.14495,-13.63933 16.19118,-17.85642 10.02494,-6.84034 21.63412,-10.65059 33.14832,-14.11687 1.13203,-0.52454 4.30136,-1.20258 3.33984,-3.0127 -10.08744,-9.17862 -20.36958,-18.6838 -26.65053,-31.01671 -2.04971,-2.90954 -3.14862,-6.86432 -6.08873,-8.98426 -0.78926,-0.22385 -1.62531,-0.15569 -2.43554,-0.15332 z"
       id="path3416"
       inkscape:connector-curvature="0"
       transform="translate(-3.0517582e-5,0)" />
    <path
       style="color:#000000;clip-rule:nonzero;display:inline;overflow:visible;visibility:visible;opacity:1;isolation:auto;mix-blend-mode:normal;color-interpolation:sRGB;color-interpolation-filters:linearRGB;solid-color:#000000;solid-opacity:1;fill:#00aad4;fill-opacity:1;fill-rule:nonzero;stroke:none;stroke-width:0.99999988;stroke-linecap:butt;stroke-linejoin:miter;stroke-miterlimit:4;stroke-dasharray:none;stroke-dashoffset:0;stroke-opacity:1;color-rendering:auto;image-rendering:auto;shape-rendering:auto;text-rendering:auto;enable-background:accumulate"
       d="m 335.45867,450.78159 c -13.2512,1.67594 -23.76048,12.97488 -27.29883,25.43164 -0.89496,8.9371 -0.84027,17.98661 -0.57812,26.95996 0.74792,7.24216 5.00377,13.55345 8.78267,19.56695 5.47799,7.48744 12.32223,15.25685 21.70658,17.51215 1.72838,-0.0784 4.26895,1.09866 5.57325,-0.37891 -0.0235,-4.76431 -1.4105,-9.51992 -1.57618,-14.31835 -2.29249,-23.48839 -2.43456,-47.10391 -3.58398,-70.65625 -0.13179,-1.9196 -0.35919,-4.66891 -3.02539,-4.11719 z"
       id="path3418"
       inkscape:connector-curvature="0"
       transform="translate(-3.0517582e-5,0)" />
    <path
       style="color:#000000;clip-rule:nonzero;display:inline;overflow:visible;visibility:visible;opacity:1;isolation:auto;mix-blend-mode:normal;color-interpolation:sRGB;color-interpolation-filters:linearRGB;solid-color:#000000;solid-opacity:1;fill:#b7c8c4;fill-opacity:1;fill-rule:nonzero;stroke:none;stroke-width:0.99999988;stroke-linecap:butt;stroke-linejoin:miter;stroke-miterlimit:4;stroke-dasharray:none;stroke-dashoffset:0;stroke-opacity:1;color-rendering:auto;image-rendering:auto;shape-rendering:auto;text-rendering:auto;enable-background:accumulate"
       d="m 544.55313,332.30878 c -1.09633,-0.0402 -2.09439,0.64974 -2.38407,1.72357 -3.19596,7.15193 -6.10837,14.44625 -9.8963,21.31084 -4.25518,7.71024 -9.03563,15.16278 -14.59625,21.99841 -3.90878,4.6637 -8.71151,9.26713 -14.96664,10.23061 -3.01285,0.36278 -6.01446,-0.0214 -9.00145,-0.38325 -0.69037,-0.11665 -1.73009,0.13967 -1.50088,1.05825 0.86569,17.23526 1.43834,34.493 2.52423,51.71947 0.25521,2.24018 0.20158,4.59413 0.95917,6.73215 0.6166,0.22668 0.89062,-0.86038 1.33647,-1.15301 2.60458,-3.53747 3.99108,-7.78256 5.67827,-11.79604 4.63209,-11.66141 8.43211,-23.8021 15.15209,-34.47923 5.11961,-7.98667 12.12648,-14.5852 19.60461,-20.3383 6.1358,-4.39539 12.83306,-7.94352 19.56524,-11.33166 2.54129,-1.2938 5.17763,-2.29217 7.88832,-3.1119 4.38958,-1.7971 8.53999,-4.22474 12.27215,-7.14879 1.20887,-1.16041 2.6483,-2.47264 2.9006,-4.20911 -0.29516,-1.99088 -2.05283,-3.35601 -3.31618,-4.78381 -6.39325,-6.36386 -14.00839,-11.74557 -22.72472,-14.35228 -3.07971,-0.90096 -6.27323,-1.65045 -9.49466,-1.68592 z"
       id="path3420"
       inkscape:connector-curvature="0"
       transform="translate(-3.0517582e-5,0)" />
  </g>
  <g
     inkscape:label="Layer 1"
     inkscape:groupmode="layer"
     id="layer1"
     transform="translate(34.687485,-48.066108)">
    <path
       style="fill:#000000"
       d="m 644.70298,868.88176 c -15.55369,-5.17847 -28.75221,-14.8579 -38.65291,-28.34695 -3.55064,-4.83763 -6.70715,-8.7957 -7.01423,-8.7957 -0.30718,0 -3.06927,2.23784 -6.13804,4.97297 -6.26291,5.58205 -10.75005,7.25911 -19.4948,7.2861 -9.17254,0.0283 -15.81998,-2.48969 -26.07876,-9.87849 -9.20186,-6.62756 -15.03638,-13.33879 -19.77614,-22.74752 -3.58639,-7.11943 -4.20927,-7.18543 -11.44949,-1.21337 -7.68614,6.33991 -18.212,10.30517 -24.63058,9.2788 -9.77869,-1.56369 -25.71632,-11.11341 -32.85196,-19.68475 -3.0356,-3.64632 -3.63175,-3.97581 -4.83682,-2.67345 -0.75607,0.81697 -8.96399,10.19967 -18.23992,20.85042 -18.80735,21.59489 -20.25474,22.97318 -30.31457,28.86727 -12.30014,7.20669 -18.37338,8.97714 -30.86753,8.9984 -12.91929,0.022 -19.60021,-1.93506 -38.46347,-11.26716 -17.96368,-8.88705 -29.77985,-18.29249 -44.37047,-35.31803 -4.31752,-5.03804 -8.31022,-9.16007 -8.87267,-9.16007 -0.56245,0 -3.00594,1.36455 -5.42998,3.03234 -2.42404,1.66777 -7.40621,4.45293 -11.07147,6.18923 -8.4215,3.98938 -14.46687,4.07683 -25.3445,0.36655 -4.28302,-1.46089 -8.15611,-2.65618 -8.60686,-2.65618 -0.45075,0 -2.27495,2.73062 -4.05377,6.06805 -2.25426,4.22942 -5.54338,8.10282 -10.85512,12.78346 -9.34134,8.23146 -11.55164,8.80691 -34.5504,8.99511 -18.91782,0.15481 -26.38256,-1.10063 -38.87756,-6.53847 -21.3012,-9.27031 -36.278,-19.19798 -42.44751,-28.13717 -2.02839,-2.93899 -4.555328,-6.21096 -5.61543,-7.27107 -1.909751,-1.90976 -1.970256,-1.89478 -6.588396,1.63033 -2.563522,1.95678 -5.788885,3.84087 -7.16749,4.18687 -1.378595,0.34601 -5.655069,2.35979 -9.503288,4.47507 -10.662863,5.86115 -14.234458,6.75962 -27.736565,6.97739 -12.078059,0.1948 -17.655689,-0.49987 -35.3623266,-4.40422 -11.0695701,-2.44086 -13.7660463,-4.11126 -26.2985234,-16.29127 -9.456973,-9.191 -12.015038,-13.32595 -14.733013,-23.81497 -1.957452,-7.55403 -3.738011,-28.80423 -2.870349,-34.25632 1.663626,-10.45375 12.234819,-33.49265 19.408608,-42.29922 7.6236319,-9.35881 32.931155,-24.25662 43.3748,-25.53351 5.237123,-0.6403 5.434337,-0.78125 8.537966,-6.10197 11.913474,-20.42395 21.934261,-31.98819 35.357503,-40.80349 4.843775,-3.18099 10.338716,-7.12862 12.210984,-8.77249 1.872268,-1.64387 5.185291,-3.70154 7.362268,-4.57259 2.356673,-0.94296 4.317699,-2.52942 4.846795,-3.92105 0.835873,-2.19851 1.375248,-2.33625 9.082937,-2.31955 4.50687,0.01 12.41943,0.6608 17.58347,1.44672 14.47878,2.20355 29.97175,2.9652 32.52463,1.59894 1.94009,-1.0383 2.09907,-1.69364 1.54812,-6.38138 -0.69167,-5.88507 0.51751,-8.80587 7.64565,-18.46815 6.89849,-9.35097 12.80983,-18.83473 16.29443,-26.14165 1.92966,-4.04634 6.428,-10.60695 10.59343,-15.45 3.9818,-4.62955 9.63038,-12.20518 12.55239,-16.83472 2.92202,-4.62955 6.57486,-10.19986 8.11744,-12.37847 1.54258,-2.17861 4.97369,-7.74892 7.62469,-12.37847 2.651,-4.62955 8.08338,-13.98767 12.07196,-20.79583 3.98857,-6.80816 8.45006,-14.67945 9.91441,-17.49175 1.46434,-2.81231 4.22983,-7.04574 6.14551,-9.40764 1.9157,-2.3619 4.48577,-6.29967 5.71128,-8.7506 1.22551,-2.45094 5.3758,-8.67591 9.22287,-13.83327 3.84707,-5.15736 8.02818,-11.22616 9.29135,-13.48621 3.6558,-6.54094 21.57554,-26.59996 28.23566,-31.60645 12.2068,-9.17602 26.65422,-16.33517 32.96497,-16.33517 3.64278,0 4.05003,-2.32314 1.71466,-9.78126 -1.12949,-3.60707 -2.77559,-11.01457 -3.65803,-16.46109 -0.88243,-5.44653 -2.03305,-12.31663 -2.55695,-15.26689 -0.5239,-2.95027 -0.95255,-8.59554 -0.95255,-12.54505 0,-9.82803 -0.2753,-10.31375 -5.84593,-10.31375 -3.60418,0 -5.85277,0.77024 -10.0444,3.44062 -6.97882,4.44605 -11.40936,4.62061 -15.69382,0.61832 -3.78145,-3.53241 -4.23909,-9.24461 -1.06401,-13.28106 3.24002,-4.11902 6.93106,-13.02065 7.54364,-18.19289 0.36002,-3.03986 -0.18393,-8.58854 -1.48796,-15.17816 -4.92164,-24.87033 -5.33687,-34.85006 -1.70766,-41.04284 2.96985,-5.06766 4.71797,-6.59165 11.46543,-9.99541 2.99559,-1.51114 6.8598,-3.78511 8.58714,-5.05327 3.54185,-2.60033 9.23785,-11.88009 9.23785,-15.05007 0,-2.57274 -4.93396,-5.25378 -14.59599,-7.93127 -8.95328,-2.48108 -11.76922,-4.02955 -16.76452,-9.21874 -7.91493,-8.22213 -7.97099,-15.99704 -0.23365,-32.40609 7.47635,-15.85556 18.70054,-31.53304 27.77813,-38.799313 6.78344,-5.429889 20.4934,-13.390721 28.76572,-16.70312 13.93935,-5.581591 30.48162,-3.573298 40.55894,4.923977 4.4098,3.718413 5.08002,3.991888 6.58811,2.688019 0.92344,-0.798342 5.58111,-3.556849 10.35048,-6.130006 4.76938,-2.573157 10.53537,-6.235659 12.8134,-8.138903 2.27804,-1.903244 6.29876,-4.553435 8.93498,-5.88931 2.63622,-1.335874 8.27753,-4.787992 12.53632,-7.671383 9.10263,-6.162972 17.47929,-8.895118 27.35345,-8.921628 9.95843,-0.02674 13.36161,1.48405 21.64459,9.608831 10.79848,10.592187 14.5754,19.5572 11.08378,26.30913 -2.64869,5.122122 -11.69626,12.368923 -19.03917,15.249819 -3.81247,1.495767 -7.94936,3.667637 -9.19314,4.826397 -3.49024,3.25163 -2.44015,13.2645 2.68186,25.57172 11.36007,27.29596 24.03394,55.56659 25.94102,57.86446 0.70844,0.8537 2.23624,1.55637 3.39507,1.56148 7.5577,0.0334 28.87807,18.78137 42.22008,37.12612 2.37667,3.26792 6.00079,7.95146 8.05344,10.40786 6.97997,8.35271 13.90181,26.89673 12.34905,33.08353 -1.6499,6.57365 -15.16728,17.00634 -28.33174,21.86637 -8.24356,3.04334 -12.87361,6.64924 -12.87361,10.02601 0,1.22531 1.94521,5.06899 4.32257,8.5415 6.71091,9.80239 13.17594,21.54092 14.86248,26.98582 0.84342,2.72326 2.44222,7.5829 3.55272,10.79921 1.11059,3.21629 2.01917,8.1462 2.01917,10.95534 0,6.9236 -3.22454,10.10176 -12.14684,11.97203 -6.58099,1.37949 -20.53232,7.73666 -20.53232,9.35592 0,1.64616 3.31753,2.66461 12.77914,3.92311 5.12221,0.68133 13.03126,2.52705 17.57554,4.10164 4.54439,1.57459 8.71781,2.86288 9.27445,2.86288 0.55653,0 4.67946,1.72423 9.16195,3.83163 4.48239,2.1074 9.04113,4.16138 10.13044,4.56441 1.0893,0.40301 6.65961,2.4205 12.37847,4.4833 15.0845,5.44098 26.49814,10.41395 37.77364,16.45808 5.46089,2.92726 10.24997,5.32229 10.64231,5.32229 1.32232,0 16.39098,10.11541 23.37917,15.69409 20.10551,16.05024 40.96848,36.37086 48.41635,47.15782 10.88008,15.75782 10.593,15.1338 21.19581,46.07862 l 4.58062,13.36875 0.36403,15.84444 c 0.20023,8.71444 0.70607,16.19897 1.12396,16.63229 0.71122,0.73733 5.03666,1.32149 27.3081,3.68808 4.90187,0.52087 13.07374,1.81686 18.15981,2.87995 11.96542,2.50108 18.23893,6.66852 38.24729,25.40751 8.19108,7.67147 18.11079,16.80678 22.04377,20.30069 18.77527,16.67922 23.7634,21.35819 26.44012,24.80162 2.45064,3.15249 3.1883,3.56252 4.82919,2.68431 2.57888,-1.38018 14.32317,-0.13387 17.53048,1.86036 3.69879,2.29977 6.76994,6.28324 7.88707,10.22976 l 0.99493,3.51514 11.15587,-2.85262 c 10.38187,-2.65471 12.16239,-2.82355 25.66235,-2.43341 13.51987,0.39069 14.86694,0.60689 19.80555,3.17853 9.03252,4.70342 12.16804,7.81749 16.20302,16.09244 6.70933,13.75937 5.70628,26.42772 -2.82555,35.68363 -2.21555,2.40358 -5.71935,5.23289 -7.78636,6.28736 -2.06691,1.05447 -3.758,2.33293 -3.758,2.84103 0,0.50809 1.95688,1.78946 4.3487,2.84746 4.92426,2.17824 11.61378,10.36615 14.10512,17.26476 2.86844,7.94246 3.50756,16.18798 1.81122,23.36669 -0.85214,3.60597 -1.75874,7.67038 -2.01462,9.03201 -0.25599,1.36163 -1.81479,6.04281 -3.46409,10.40263 -5.69757,15.06181 -19.46381,29.29327 -36.64384,37.88241 -12.3649,6.1818 -22.69468,8.59032 -32.60776,7.60289 -9.05579,-0.90206 -19.35804,-3.12098 -22.83263,-4.91775 -2.72921,-1.41131 -2.99282,-1.39318 -3.52034,0.24205 -1.80518,5.59625 -2.96865,7.52902 -6.39729,10.62653 -7.70268,6.95897 -10.65667,7.83512 -26.66639,7.90929 -20.51826,0.0951 -37.34198,-2.47159 -49.51388,-7.55392 -25.79208,-10.76939 -43.83028,-23.00389 -53.73612,-36.44691 -2.20743,-2.99559 -4.13233,-5.5988 -4.27761,-5.78489 -0.14527,-0.1861 -3.59362,1.30719 -7.66316,3.31842 l -7.39896,3.65678 -5.45366,-1.58543 c -2.99955,-0.87199 -5.65805,-1.58544 -5.90769,-1.58544 -0.24965,0 -0.7341,2.38347 -1.07644,5.2966 -0.91947,7.823 -3.01856,12.89879 -8.02501,19.40501 -3.75463,4.87941 -5.11122,5.92638 -8.39914,6.48187 -3.36189,0.56798 -4.20729,1.25167 -5.92631,4.79262 -2.9848,6.14836 -7.48541,11.13507 -14.10898,15.63308 -13.4853,9.15768 -21.19135,10.59238 -33.99564,6.3293 z m 23.20894,-3.61017 c 11.50029,-5.23745 18.37341,-11.77557 23.01841,-21.89672 1.4865,-3.23895 2.1387,-3.71354 5.10349,-3.71354 2.67207,0 4.11589,-0.79435 6.74983,-3.71354 7.28756,-8.07672 10.52864,-17.12269 9.34149,-26.07211 -0.76885,-5.79531 0.30778,-6.22907 5.95266,-2.39837 2.37795,1.61372 5.01872,2.47569 7.58453,2.47569 5.1539,0 13.44886,-4.45102 14.25099,-7.64701 0.84144,-3.35266 3.59738,-2.43975 4.39406,1.45557 0.86837,4.24589 7.95985,13.31199 14.99221,19.16689 10.72441,8.92871 29.62009,19.84216 44.5309,25.71947 7.53284,2.96916 34.56276,6.12796 47.87625,5.59495 13.13237,-0.52576 17.86263,-2.29322 23.97848,-8.95955 4.52102,-4.92792 5.05537,-6.94334 2.72347,-10.27257 -0.81688,-1.16624 -1.21478,-2.82508 -0.88432,-3.68632 0.63387,-1.65172 2.36953,-2.16975 2.36953,-0.7072 0,1.91936 8.50857,6.30045 14.69315,7.56553 18.76318,3.8381 27.10063,2.96585 45.16785,-4.72536 7.9336,-3.37729 11.16042,-5.41962 16.5712,-10.48806 12.74339,-11.93732 21.14114,-26.23282 24.5985,-41.87422 5.07041,-22.93878 -8.1591,-44.70366 -27.7763,-45.69699 -3.7379,-0.18928 -6.44116,-0.79762 -6.67606,-1.50241 -0.47404,-1.42224 -0.44552,-1.42839 7.77715,-1.67674 11.76836,-0.35543 21.05003,-7.26155 24.20149,-18.0072 2.34132,-7.98355 2.09969,-14.77394 -0.77935,-21.90179 -4.53547,-11.22862 -9.76255,-15.34749 -22.31838,-17.58645 -12.04039,-2.14705 -23.90698,-1.80014 -35.63751,1.0418 -5.60299,1.35745 -11.52059,3.15758 -13.15019,4.0003 -3.55748,1.83963 -4.88544,1.22652 -4.88544,-2.25561 0,-3.91918 -3.56827,-10.49329 -6.66328,-12.27651 -3.16641,-1.82425 -12.09337,-3.15513 -13.81467,-2.05954 -0.82639,0.52594 -0.19063,2.29274 2.17534,6.04507 1.83865,2.91606 3.64749,6.6971 4.01964,8.40232 0.70062,3.21025 5.0419,10.18068 7.73011,12.41172 0.8451,0.70133 3.06382,4.01789 4.93069,7.37012 9.2782,16.66098 11.09556,38.69463 3.89723,47.24939 -2.90171,3.4484 -4.05261,3.56195 -9.24642,0.91224 -2.15692,-1.10038 -3.98636,-1.65741 -4.06548,-1.23785 -0.0792,0.41955 -0.19043,2.94844 -0.24757,5.61973 -0.17617,8.2473 -2.21396,6.47437 -2.90835,-2.53046 -0.34511,-4.47534 -0.50741,-8.25698 -0.36075,-8.40364 0.14666,-0.14667 2.83268,1.02767 5.96889,2.60964 6.30668,3.18112 7.19259,3.11221 10.07004,-0.7832 1.73427,-2.3477 1.97065,-4.1592 1.90093,-14.56451 -0.11715,-17.47676 -3.18839,-25.43158 -14.57233,-37.74287 -3.36001,-3.63379 -5.67033,-7.13476 -6.13388,-9.29531 -0.40898,-1.90629 -1.32855,-4.58004 -2.04353,-5.94167 -2.74852,-5.235 -14.29634,-18.04153 -25.56936,-28.35666 -6.46721,-5.91762 -19.21139,-17.72907 -28.32036,-26.24768 -15.69283,-14.67574 -26.00469,-23.14893 -31.85416,-26.17435 -3.37219,-1.74412 -15.56181,-4.25285 -25.9013,-5.3307 -4.46902,-0.46587 -12.40283,-1.40852 -17.6307,-2.09478 -5.22798,-0.68625 -10.21006,-0.97732 -11.07131,-0.64682 -0.95433,0.36622 -1.83696,2.40792 -2.25971,5.22732 -0.86184,5.7466 -7.02978,18.52566 -12.93808,26.80529 -2.79169,3.91229 -6.93758,7.99984 -11.08061,10.92486 -9.48656,6.69751 -24.09187,13.96467 -31.53499,15.69085 -8.73405,2.02555 -23.92798,1.83915 -39.94819,-0.4901 -16.44208,-2.3906 -26.16254,-5.08235 -44.06736,-12.20291 -7.62513,-3.03244 -17.42888,-6.47374 -21.7861,-7.6473 -4.35722,-1.17358 -13.24605,-3.93067 -19.75307,-6.12688 -11.27738,-3.8063 -12.54503,-4.01711 -27.09647,-4.50616 -23.85677,-0.80177 -39.83203,2.02569 -65.42674,11.57988 -4.5635,1.70349 -11.22975,3.51254 -14.81386,4.02011 -5.63171,0.79754 -7.11861,0.65658 -10.9496,-1.03803 l -4.43288,-1.96089 -4.02479,3.84083 c -4.94415,4.71822 -14.55351,10.49684 -19.86922,11.94846 -2.17861,0.59493 -8.19455,1.76443 -13.36875,2.59889 -5.1742,0.83447 -12.08136,1.97018 -15.34928,2.52381 -10.19096,1.7265 -27.84287,1.58628 -37.80879,-0.30034 -14.3151,-2.70996 -19.83639,-5.13249 -25.75915,-11.30212 -2.82785,-2.94574 -5.44473,-6.34531 -5.81529,-7.5546 -1.4768,-4.81949 -2.14993,-4.82586 -11.54139,-0.10917 -23.94771,12.02724 -37.58815,15.71238 -58.20938,15.72598 -12.86626,0.009 -15.38851,-0.286 -24.2618,-2.83272 -10.45395,-3.00038 -23.74349,-7.48963 -28.71805,-9.70103 -7.31633,-3.25243 -19.41339,-11.85699 -26.56864,-18.89809 l -7.79906,-7.67466 -11.5342,-0.0314 c -6.3438,-0.0172 -15.99044,-0.67705 -21.43697,-1.46617 -15.76392,-2.28395 -20.81588,-2.01082 -25.109578,1.35756 -1.984651,1.55695 -5.206054,3.34975 -7.158664,3.98399 -1.952609,0.63426 -4.849171,2.51954 -6.436804,4.18953 -1.587632,1.67 -4.223484,3.73217 -5.857442,4.58261 -5.982207,3.1136 -17.404663,12.26123 -20.298353,16.25586 -4.053265,5.59536 -4.039401,10.37854 0.04278,14.74848 1.721271,1.84262 2.644289,3.60016 2.15021,4.09424 -1.371901,1.3719 -5.894023,-2.82261 -7.151785,-6.63367 -0.62636,-1.89777 -1.737788,-3.45049 -2.469881,-3.45049 -2.007164,0 -14.037947,21.437 -15.839143,28.22291 -1.022907,3.85375 -1.494091,9.16217 -1.340855,15.10636 0.153156,5.94103 -0.168694,9.56965 -0.914987,10.31594 -2.051162,2.05117 -2.53008,-1.78073 -1.891391,-15.13333 l 0.610566,-12.76466 -2.817567,0 c -3.501057,0 -7.189802,1.53566 -17.913607,7.45764 -12.511176,6.90902 -20.9471525,13.53707 -25.450568,19.99625 -4.435563,6.36185 -12.252645,22.3694 -15.208198,31.14282 -3.852586,11.43624 -1.87208,37.30531 3.776889,49.33299 3.020921,6.43209 19.0699928,22.56337 25.68714629,25.81874 7.97287311,3.92232 27.05965071,7.15647 42.88361271,7.26638 15.837301,0.11 18.184408,-0.45283 28.847588,-6.91758 3.06684,-1.85934 6.208456,-3.3806 6.981377,-3.3806 2.178264,0 13.684913,-8.7524 13.684913,-10.40928 0,-3.22218 2.652459,-1.09996 5.93005,4.74463 5.236761,9.33816 14.646181,18.11838 26.530681,24.75659 5.57816,3.11575 10.31598,5.66499 10.52847,5.66499 0.2125,0 4.107,1.72235 8.65447,3.82746 12.69922,5.87868 16.65573,6.55061 38.47158,6.5336 22.10936,-0.0172 22.32851,-0.0748 32.67916,-8.58354 5.12637,-4.21412 7.14243,-6.73881 9.90278,-12.40113 1.90628,-3.91038 4.01742,-7.33707 4.6914,-7.61487 0.67398,-0.2778 4.23898,0.89607 7.92222,2.60861 5.5757,2.59244 7.95435,3.12522 14.20882,3.18255 6.83471,0.0627 8.19617,-0.27812 15.09975,-3.77936 12.91519,-6.55012 18.70487,-14.81865 20.52169,-29.30804 0.72366,-5.77133 0.6138,-8.73295 -0.47903,-12.91351 -1.8893,-7.22748 -0.92499,-7.9836 5.90789,-4.63245 7.5268,3.69149 9.38065,8.19377 2.12568,5.16245 -4.86068,-2.03092 -4.89972,-2.01029 -4.19366,2.21512 0.91417,5.4708 -1.09404,17.68856 -4.06563,24.73485 l -2.60082,6.16714 4.81957,5.71619 c 13.87094,16.45149 30.51248,30.58301 45.12393,38.31796 15.71823,8.32084 25.76622,11.62787 37.1027,12.21134 24.94296,1.28378 39.49429,-8.86795 74.61736,-52.05693 4.06836,-5.00267 8.07987,-9.09576 8.91438,-9.09576 0.83441,0 3.0761,2.10046 4.98139,4.66768 6.79311,9.15321 18.79547,17.28243 29.8431,20.21275 4.08421,1.08331 5.33245,0.97548 11.26936,-0.97348 6.85203,-2.24935 16.81957,-9.11801 19.77317,-13.62569 0.85006,-1.29747 2.15069,-2.35904 2.89023,-2.35904 0.73954,0 3.03619,3.45359 5.10359,7.67465 2.0675,4.22106 5.70172,10.22417 8.07621,13.34024 4.61043,6.05047 16.50951,15.6346 22.53862,18.1537 5.91958,2.47336 16.15935,3.3466 21.3177,1.81794 4.79899,-1.42214 14.32793,-9.05029 15.35742,-12.29398 0.8463,-2.66628 1.59683,-2.43621 4.21027,1.29061 7.91677,11.28916 14.56371,19.60392 16.87245,21.10581 1.47175,0.95744 4.45833,3.21293 6.63694,5.0122 5.01694,4.14336 12.202,7.85497 19.80555,10.23094 10.93395,3.41665 14.63056,3.24698 24.19921,-1.11075 z m 48.60332,-88.18917 c 0.01,-0.71169 3.38417,-4.63618 7.49947,-8.72107 7.07395,-7.02171 12.28895,-14.81722 12.28895,-18.36974 0,-3.50359 2.3831,-0.54976 2.48995,3.08626 0.10745,3.65815 7.14416,18.3496 9.48033,19.79344 1.38747,0.85752 1.0898,4.62973 -0.32808,4.1571 -1.25162,-0.41721 -10.65192,-16.00523 -10.65192,-17.66359 0,-1.73425 -1.85044,-0.88892 -3.97745,1.81701 -3.22078,4.09743 -12.98254,14.42907 -15.0236,15.90059 -1.4773,1.06516 -1.79171,1.06516 -1.77765,0 z M 390.69679,641.54671 c 18.17249,-2.81862 21.54874,-3.73778 29.35589,-7.99208 13.91399,-7.58196 22.46197,-20.88384 27.50317,-42.79887 8.19267,-35.6149 11.71984,-89.08898 9.12205,-138.29295 -0.8251,-15.62756 -1.50681,-20.00128 -3.28911,-21.10281 -0.44444,-0.27466 -5.03962,1.91871 -10.21145,4.87415 -5.17192,2.95544 -11.29065,6.27414 -13.5973,7.3749 -4.23958,2.0232 -25.637,7.77309 -38.38811,10.31562 -22.16515,4.41968 -60.29955,5.40906 -74.88946,1.94299 -4.35815,-1.03535 -6.3456,2.21018 -7.79491,12.72907 -2.91448,21.15298 -0.84658,105.03105 2.8737,116.56327 0.61497,1.90628 1.56242,9.25909 2.10545,16.33958 1.51071,19.69773 2.32042,23.57141 5.9973,28.69137 3.80412,5.29714 9.94436,8.57456 20.21351,10.78917 3.81257,0.82221 8.93725,1.93786 11.38819,2.47922 6.00368,1.3261 24.48275,0.43383 39.61108,-1.91263 z m 292.13109,-1.42613 c 7.51769,-1.58139 20.10263,-7.65089 30.28724,-14.60699 6.46265,-4.414 15.26632,-14.95461 15.26632,-18.27825 0,-1.11501 0.74053,-2.63888 1.64554,-3.38639 2.9536,-2.43947 6.36313,-11.87671 7.42391,-20.54848 0.5711,-4.66894 0.85145,-14.96165 0.62309,-22.8727 -0.4382,-15.17608 -0.67379,-16.13664 -9.35664,-38.1504 -0.85936,-2.17861 -2.35765,-6.23987 -3.32961,-9.02503 -4.90732,-14.06214 -14.96795,-28.0292 -31.46171,-43.67779 -26.80464,-25.431 -39.55931,-35.45308 -54.0855,-42.49783 -2.77218,-1.34442 -8.82812,-4.38516 -13.45767,-6.7572 -7.50215,-3.84389 -27.44733,-12.10893 -42.58194,-17.64544 -2.99559,-1.09585 -9.45715,-3.66916 -14.35902,-5.71847 -16.17212,-6.76104 -33.1743,-11.52195 -33.1743,-9.28941 0,0.30895 2.67375,3.10598 5.94167,6.21562 7.36331,7.00666 7.72357,9.46998 2.04294,13.96912 -2.14435,1.69834 -6.93481,4.45682 -10.64548,6.12997 -3.71067,1.67314 -8.75208,3.94057 -11.20301,5.03872 -10.17134,4.55734 -18.70159,10.51435 -27.30176,19.06581 -10.2972,10.23886 -14.27633,17.11559 -21.21244,36.65861 -2.31962,6.53583 -5.09309,13.61487 -6.16319,15.7312 -2.44975,4.84466 -1.53859,5.57905 6.72983,5.42436 3.3303,-0.0623 7.09316,0.47075 8.41736,1.19242 2.8107,1.53173 9.38882,2.76977 19.72464,3.71226 7.91183,0.72146 13.15753,3.32828 14.36725,7.13979 0.75221,2.37015 0.58198,2.37124 7.82022,-0.0501 6.49771,-2.17361 12.12011,-2.42692 22.10914,-0.99611 11.72003,1.67877 28.10219,3.22265 28.62694,2.69785 0.27856,-0.2786 -2.53501,-2.17998 -6.25261,-4.22528 -9.82207,-5.40383 -19.13761,-11.46123 -19.13761,-12.44413 0,-1.91771 3.95487,-0.62918 8.99885,2.93191 2.94815,2.08138 8.47955,5.49407 12.29212,7.58378 14.97616,8.20854 18.87568,12.34078 9.90277,10.49372 -2.17861,-0.44846 -7.74892,-1.30455 -12.37847,-1.90242 -30.71573,-3.96673 -40.8033,-4.00718 -46.98213,-0.18843 -2.74773,1.69817 -5.98871,2.42381 -13.71049,3.06969 -11.45583,0.95822 -21.64005,3.62008 -27.91098,7.29511 -5.51505,3.23202 -15.62103,14.27788 -18.68089,20.41831 -1.31479,2.63846 -3.04986,5.45651 -3.85565,6.26234 -0.88956,0.8895 -1.73724,4.50891 -2.15771,9.21221 -0.95047,10.6333 -6.01178,35.77173 -9.1361,45.37761 -2.43896,7.49878 -4.8082,12.7093 -7.53354,16.56857 -0.98949,1.40111 -0.88967,2.03449 0.54594,3.46598 2.97598,2.96734 11.57595,2.03424 25.08086,-2.72128 6.46235,-2.2756 17.54286,-5.74689 24.62335,-7.71396 l 12.87361,-3.5765 22.33472,-0.0406 22.33462,-0.0406 12.82023,4.14352 c 7.05107,2.27893 17.27638,5.55598 22.72291,7.28232 5.44652,1.72635 14.35902,4.90225 19.80555,7.05757 18.29845,7.24109 32.9393,10.83583 52.97985,13.00798 8.58323,0.93031 21.25908,0.56795 27.72698,-0.79261 z m -424.33312,-1.40734 c 13.1247,-2.73612 29.51396,-8.65004 45.05763,-16.25866 l 8.41736,-4.12028 -0.35179,-4.45625 c -0.51446,-6.51675 -1.47958,-7.71141 -6.8303,-8.45473 -6.72255,-0.93389 -19.83568,-7.48905 -25.91461,-12.95452 -5.72926,-5.15111 -15.92204,-18.34466 -15.92204,-20.60954 0,-0.79009 -0.47797,-1.73194 -1.06217,-2.09299 -2.40277,-1.485 -7.79803,-15.61252 -8.82398,-23.10569 -1.88166,-13.74279 1.32117,-33.36936 7.11683,-43.61122 4.34036,-7.67009 16.74508,-19.74659 23.94909,-23.31539 6.31496,-3.12838 13.2915,-3.74471 17.41397,-1.53845 3.07405,1.64519 3.57337,0.59682 4.31862,-9.06739 0.36171,-4.69047 1.41188,-9.61868 2.56835,-12.05261 1.07605,-2.26467 3.81665,-8.1282 6.09025,-13.03007 2.27359,-4.90188 5.68879,-11.0475 7.58933,-13.65695 6.14143,-8.4322 23.89375,-18.69996 38.87718,-22.48615 9.98588,-2.52336 11.20572,-3.39034 7.88189,-5.60194 -1.33945,-0.89125 -6.02065,-5.23196 -10.40267,-9.64603 -7.44805,-7.50254 -11.57768,-13.30746 -17.07812,-24.00634 -1.24796,-2.42743 -2.95742,-4.67765 -3.79877,-5.00051 -2.63507,-1.01118 -13.24237,2.57314 -21.95007,7.41714 -14.17317,7.88442 -30.10346,23.70709 -42.07123,41.78703 -3.06446,4.62955 -7.84393,11.53674 -10.62105,15.34931 -2.77711,3.81256 -6.01511,8.86225 -7.19556,11.22151 -1.18044,2.35927 -3.15078,5.2941 -4.37854,6.52185 -1.22774,1.22775 -5.18107,7.5415 -8.78515,14.03056 -9.2693,16.68909 -19.63195,34.23631 -25.68171,43.48717 -2.84948,4.35722 -7.09419,11.04159 -9.43269,14.85416 -4.6545,7.58844 -8.99284,13.30578 -15.62745,20.59479 -2.37812,2.61268 -5.65959,7.69625 -7.29216,11.29682 -2.57924,5.68838 -14.78568,24.70754 -19.57216,30.49588 -6.2549,7.56411 -6.46167,18.97392 -0.48735,26.89284 1.29717,1.7194 7.38076,6.49459 13.51907,10.61153 12.52355,8.39949 22.41336,12.5399 42.84945,17.93911 10.76697,2.84463 14.57512,3.40044 23.27152,3.39649 5.71886,-0.003 12.18042,-0.37631 14.35903,-0.83048 z m 51.79043,-39.24993 c 0.16281,-1.6646 -0.16038,-4.22694 -0.7182,-5.6941 -0.81413,-2.14134 -1.65389,-2.67058 -4.25711,-2.68291 -5.69777,-0.0269 -16.45002,-6.74096 -22.28739,-13.91683 -10.30291,-12.66533 -14.12982,-22.8638 -14.12982,-37.65504 0,-15.37278 4.66714,-26.81917 14.44432,-35.42539 5.47185,-4.81651 9.8175,-6.94054 16.15053,-7.89392 l 4.35251,-0.65524 0.25414,-5.74606 c 0.28261,-6.39002 -1.37472,-8.97632 -6.46916,-10.09524 -5.81862,-1.27798 -19.09745,5.73406 -26.84778,14.17731 -9.61434,10.47388 -14.21448,22.18813 -15.43086,39.29454 -0.88886,12.50034 0.76438,20.14362 7.07649,32.71621 8.25638,16.44522 17.61306,26.86069 29.34119,32.66136 7.4474,3.68344 9.71749,4.3403 14.26403,4.12737 3.64472,-0.1707 3.98476,-0.42726 4.25711,-3.21206 z m -2.14026,-15.54116 c -1.96385,-14.15949 -3.56705,-38.07938 -3.94385,-58.84269 -0.23891,-13.16448 -0.75645,-24.45653 -1.15008,-25.09344 -1.02179,-1.65328 -6.92272,-0.36207 -12.72753,2.78499 -5.76923,3.12775 -10.63783,8.58441 -14.28484,16.01027 -2.4676,5.0244 -2.71748,6.62556 -3.02591,19.38966 -0.31259,12.93609 -0.1644,14.3358 2.11037,19.93406 6.42244,15.8057 20.60893,29.85506 30.27472,29.98206 l 3.33085,0.0438 -0.58373,-4.20868 z m 154.69328,-48.02846 c 4.50676,-7.00003 13.83983,-15.69289 19.45926,-18.12452 6.0087,-2.60004 15.59429,-4.86709 24.2618,-5.73805 6.01068,-0.60398 6.4368,-0.80876 6.4368,-3.09325 0,-3.05205 -3.43102,-4.94595 -8.99647,-4.96603 -4.12946,-0.015 -14.37775,2.93623 -19.72158,5.67909 -5.80382,2.97899 -17.06298,12.13487 -19.82674,16.12304 -1.54325,2.22687 -3.61808,4.48353 -4.61074,5.01479 -1.33261,0.71318 -1.80488,2.12291 -1.80488,5.38734 0,2.43177 0.39919,4.42141 0.8871,4.42141 0.48781,0 2.24981,-2.11672 3.91545,-4.70382 z m 2.64989,-16.22775 c 5.10884,-5.27585 15.42535,-12.48279 21.01804,-14.68291 4.99081,-1.96329 3.94408,-3.2879 -1.98055,-2.50651 -7.18407,0.94749 -12.65911,3.52844 -18.07494,8.52062 -4.94476,4.5579 -7.42471,8.47459 -7.42471,11.7262 0,3.0304 1.04653,2.53528 6.46216,-3.0574 z m 9.87158,-17.68732 c 3.96131,-1.30734 4.60261,-2.97277 1.14476,-2.97277 -3.61996,0 -17.0508,10.17192 -15.89663,12.03939 0.28669,0.4638 2.94192,-1.12865 5.90057,-3.53877 2.95865,-2.41011 6.94175,-4.89764 8.8513,-5.52785 z m -10.1445,-0.80118 c 2.271,-1.95026 2.19762,-3.16187 -0.19142,-3.16187 -2.06434,0 -5.26679,3.73074 -4.40268,5.12893 0.56773,0.91855 1.89658,0.3496 4.5941,-1.96706 z m 4.71936,-25.15248 c 7.98025,-21.66282 12.22607,-29.62823 20.47558,-38.41345 3.91734,-4.17169 10.24531,-9.68015 14.06223,-12.24103 6.94126,-4.65705 21.94762,-12.51878 23.8957,-12.51878 1.77626,0 10.44228,-4.71899 13.70009,-7.46025 1.7116,-1.44022 3.11195,-3.32379 3.11195,-4.18572 0,-2.027 -6.94709,-8.65506 -13.90617,-13.26745 -5.57219,-3.69323 -12.33024,-6.22523 -19.06671,-7.14363 -3.19859,-0.43607 -3.89169,-0.18819 -4.64351,1.66078 -5.96969,14.68113 -10.33117,23.17348 -17.14556,33.38441 -11.8159,17.70544 -18.74655,22.12209 -30.89706,19.68961 -1.09039,-0.21829 -1.89054,0.0962 -1.78022,0.69957 0.11022,0.60284 0.70003,12.85752 1.31063,27.23263 0.61071,14.37511 1.33806,27.25063 1.61623,28.61226 l 0.50584,2.47569 1.77339,-2.18507 c 0.97532,-1.20178 4.11975,-8.55459 6.98759,-16.33957 z m -90.13078,-23.57951 c 5.1742,-0.59304 13.64105,-2.13641 18.81525,-3.4297 5.1742,-1.29328 10.64469,-2.61785 12.15665,-2.94347 4.63846,-0.99898 34.49216,-15.3516 37.2172,-17.8927 1.11327,-1.03817 0.6009,-1.68604 -2.97083,-3.7565 -4.23413,-2.45438 -7.22764,-3.50925 -21.15094,-7.45332 -20.41398,-5.78268 -24.43144,-6.45663 -38.62081,-6.47876 -22.24747,-0.0347 -38.26814,4.2535 -52.8265,14.1399 -3.30645,2.24536 -7.31295,5.97375 -8.90334,8.2853 -4.03293,5.86167 -9.28297,17.75419 -8.28033,18.75683 2.01285,2.01286 11.13705,2.65106 32.37963,2.26482 12.52701,-0.22777 27.00982,-0.89936 32.18402,-1.4924 z m 92.01885,-21.2346 c 10.16797,-5.15251 26.54904,-30.34017 33.19331,-51.03831 6.81439,-21.22828 8.47529,-29.45139 8.47529,-41.96103 0,-7.88029 -0.53386,-11.94463 -2.36756,-18.02381 -2.85972,-9.4805 -8.29149,-21.5574 -12.34678,-27.45153 -4.91257,-7.14021 -10.57676,-26.21588 -9.5848,-32.27965 0.57149,-3.49318 0.31471,-3.84031 -11.41928,-15.43873 -11.05477,-10.92704 -12.3855,-12.64963 -16.83056,-21.78611 -8.26466,-16.98699 -9.65857,-28.25221 -5.48762,-44.34681 5.14558,-19.85543 5.75598,-25.24241 3.10927,-27.43897 -1.20616,-1.00109 -2.94806,0.34701 -10.27987,7.95613 l -8.82764,9.16144 -8.43686,-0.64851 c -8.30635,-0.63847 -28.00079,-6.3029 -31.41022,-9.03403 -4.44278,-3.559 -13.28445,-7.5741 -15.47056,-7.02541 -3.78166,0.94914 -2.73205,3.16089 2.14851,4.52737 6.87821,1.92578 9.36094,4.32243 9.36094,9.0364 0,5.24195 -1.00137,6.87882 -7.39423,12.08639 -5.00995,4.08108 -6.01247,4.47505 -14.1013,5.5416 -4.78936,0.6315 -10.49042,1.72174 -12.66903,2.42275 -4.83968,1.55727 -5.34111,3.79651 -3.12974,13.9767 5.22092,24.03498 5.85366,42.70319 1.67648,49.46201 -1.89365,3.064 -12.36356,10.44994 -14.81325,10.44994 -1.77025,0 -9.30511,9.37115 -11.64588,14.48405 -2.3594,5.15363 -2.47712,6.26137 -2.36722,22.27812 0.0888,12.94018 0.68499,20.23081 2.56702,31.39042 2.71542,16.1012 9.54007,39.64202 12.82661,44.24392 1.16693,1.63395 3.32907,5.0666 4.80476,7.62809 3.75632,6.52022 12.00154,15.715 18.8653,21.03795 5.29814,4.10878 6.30725,4.51139 11.38819,4.54367 12.81019,0.0814 48.86065,8.88433 63.01103,15.38633 4.79997,2.20555 9.94783,5.54299 13.06196,8.46825 2.82674,2.65543 6.07238,4.82805 7.21239,4.82805 1.14,0 4.2366,-1.0965 6.88134,-2.43668 z m -89.43692,-66.6021 c -8.63096,-7.25675 -13.57441,-17.8813 -19.9433,-42.86258 -4.65709,-18.26692 -5.61054,-19.96546 -8.18823,-14.58728 -1.48361,3.09544 -3.16845,2.74077 -3.16845,-0.66699 0,-2.57867 2.25622,-4.94238 6.1197,-6.41127 1.99607,-0.75891 3.64529,-0.61665 6.68256,0.57642 4.28811,1.68442 5.87375,4.94645 1.80433,3.71193 -3.86171,-1.1715 -4.21337,-1.00994 -4.01352,1.844 0.2276,3.25036 6.57422,26.63163 9.18916,33.85332 3.76898,10.40883 7.21928,16.30198 12.42929,21.2294 4.40822,4.1691 5.91845,5.01296 8.97163,5.01296 3.2897,0 4.5423,-0.87503 12.05286,-8.41943 13.96876,-14.03179 25.07393,-20.34913 38.55775,-21.93428 4.21383,-0.49537 5.80401,-0.2157 8.7898,1.54596 2.00482,1.18291 3.88347,1.91247 4.17461,1.62127 0.29124,-0.2912 -0.30243,-2.07421 -1.31915,-3.96226 -2.00848,-3.72949 -1.43996,-5.56526 1.07663,-3.47664 3.98013,3.30321 5.80056,12.3608 3.38972,16.86548 -1.32816,2.48173 -4.45714,2.65035 -3.38585,0.18247 1.36906,-3.15367 1.04949,-6.6543 -0.60883,-6.66982 -0.85461,-0.008 -3.1778,-0.88693 -5.16261,-1.95317 -3.28594,-1.76518 -4.1451,-1.82785 -9.60312,-0.70051 -12.10178,2.49958 -19.27823,6.95893 -34.48027,21.4257 -8.45004,8.04129 -9.08946,8.44606 -13.34241,8.44606 -3.87928,0 -5.19802,-0.61458 -10.0223,-4.67074 z m 7.67188,-17.80069 c -4.36858,-0.8545 -5.25394,-3.14141 -3.76023,-9.71259 0.74284,-3.26792 2.30767,-10.62073 3.4774,-16.33958 1.16972,-5.71885 3.62155,-17.52791 5.44851,-26.24235 1.82696,-8.71445 3.34526,-16.7357 3.37398,-17.825 0.0693,-2.63434 1.54631,-4.85497 2.73891,-4.11794 0.60842,0.37606 0.51573,3.04141 -0.25421,7.30638 -1.78913,9.91095 -5.26115,26.60383 -7.06078,33.94697 -2.65117,10.81782 -5.21294,28.16409 -4.29836,29.10538 0.47163,0.48536 3.0011,1.08845 5.62098,1.3402 3.93883,0.37846 5.09002,0.097 6.64862,-1.62519 2.12137,-2.34414 4.54884,-2.7551 4.54884,-0.7701 0,0.72203 -1.03137,2.28172 -2.2919,3.46597 -2.24882,2.11265 -7.90469,2.69764 -14.19176,1.46785 z m -12.88613,-47.31652 c -3.16847,-2.21928 -5.45161,-9.04616 -6.02952,-18.02908 -0.69617,-10.82115 0.75021,-16.08332 6.29003,-22.88402 7.32621,-8.99368 7.68506,-10.10795 6.97785,-21.66655 -0.57834,-9.45204 0.2016,-13.49982 1.82738,-9.48397 1.06245,2.62439 2.27262,25.21814 1.47158,27.47451 -2.0138,5.67252 -2.00002,11.40967 0.0466,19.42576 3.05686,11.97248 3.64271,20.9481 1.57339,24.10622 -1.33785,2.04182 -2.44242,2.51593 -5.86158,2.51593 -2.31719,0 -5.15029,-0.65646 -6.2958,-1.4588 z m 9.03571,-1.86028 c 1.59953,-1.1696 1.74861,-2.22 1.18138,-8.32324 -0.35704,-3.84159 -1.53548,-9.81222 -2.61878,-13.26807 -1.08328,-3.45584 -1.97535,-8.66002 -1.98239,-11.56483 -0.0147,-6.10588 -0.92995,-6.27709 -5.22006,-0.97652 -2.39452,2.9585 -2.93783,4.7101 -3.41404,11.00667 l -0.56634,7.48825 3.356,1.40279 c 1.84578,0.77154 3.9322,2.09763 4.63646,2.94688 1.71517,2.06826 0.4702,6.80098 -1.95591,7.43542 -2.39023,0.62506 -1.83915,2.36321 1.24877,3.93873 3.01069,1.53612 3.11881,1.53437 5.33491,-0.0861 z m 37.1688,-10.80996 c -3.50746,-1.73733 -6.77162,-9.26748 -9.06233,-20.90666 -2.10473,-10.69393 -1.9346,-17.38574 0.66339,-26.09108 1.76052,-5.89924 8.07482,-16.11487 9.96071,-16.11487 2.03066,0 1.74041,1.664 -0.91839,5.26503 -3.34674,4.53265 -6.79548,12.22048 -6.40155,14.26971 0.23965,1.24666 1.59792,1.92491 4.68124,2.33759 6.73439,0.90136 11.89472,6.95686 14.86833,17.44765 l 2.30348,8.12625 -3.7375,5.73764 c -3.75939,5.77118 -8.28853,11.1967 -9.32426,11.16957 -0.30659,-0.008 -1.67149,-0.5664 -3.03312,-1.24083 z m 10.07023,-12.64248 2.59047,-3.99515 -1.97303,-6.57675 c -2.30507,-7.6831 -4.73917,-11.32162 -9.17086,-13.70823 -3.63501,-1.95758 -7.87291,-1.39111 -8.8613,1.18446 -0.9272,2.41623 1.30211,17.31869 2.97855,19.91129 0.79242,1.22547 2.29695,2.22813 3.34328,2.22813 1.04643,0 3.15285,1.09998 4.68104,2.4444 1.5281,1.34442 3.01312,2.45848 3.2999,2.47569 0.28679,0.0172 1.68714,-1.76651 3.11195,-3.96384 z m 12.6917,-60.95436 c -2.54739,-6.81417 -5.29492,-11.41105 -8.50461,-14.22919 -3.83693,-3.36884 -6.77756,-3.78296 -10.13984,-1.42793 -3.37071,2.36088 -4.05687,0.59965 -0.84382,-2.1658 4.62479,-3.98056 8.15573,-3.25566 14.11601,2.89801 5.5513,5.73145 9.57034,14.68971 7.51324,16.74683 -0.75667,0.75662 -1.37312,0.23198 -2.14098,-1.82192 z m -74.25634,-10.24362 c 0,-3.24102 0.68305,-4.80301 3.39217,-7.75718 3.26284,-3.55796 3.64027,-3.69827 9.89923,-3.68003 5.69081,0.0166 6.83339,0.34529 9.10836,2.62029 3.6867,3.68668 2.0876,5.57037 -1.88846,2.22467 -2.7429,-2.30798 -3.69141,-2.5463 -8.09557,-2.03404 -5.67269,0.65979 -9.13614,3.8679 -9.64496,8.93386 -0.47389,4.71819 -2.77077,4.46322 -2.77077,-0.30757 z m 156.15239,170.4764 c 4.39683,-2.21703 10.73996,-4.57117 14.09591,-5.23141 13.34884,-2.62621 14.34714,-7.40811 6.29222,-30.14008 -2.87349,-8.10958 -7.81814,-16.96724 -15.65233,-28.03884 -4.94554,-6.98926 -5.31452,-9.10969 -2.4137,-13.86776 1.96531,-3.22352 4.59113,-4.70999 15.06777,-8.5301 6.27697,-2.28876 18.41282,-10.29938 21.92286,-14.47076 2.56333,-3.04634 2.77941,-3.87601 2.3222,-8.91753 -0.77647,-8.56386 -5.78362,-18.55458 -16.52357,-32.96957 -15.19135,-20.38961 -34.45641,-38.01043 -43.12005,-39.43977 -2.91439,-0.48081 -2.44579,2.54121 2.71306,17.49825 8.90359,25.814 9.56489,28.22291 7.74773,28.22291 -0.50999,0 -2.76257,-5.68172 -5.00565,-12.62604 -4.58122,-14.18303 -10.60231,-29.97147 -11.97008,-31.38809 -1.2022,-1.2452 -3.81039,2.23939 -3.85149,5.14573 -0.0317,2.238 1.97937,4.72921 5.50199,6.81581 2.89864,1.71702 0.87213,2.77669 -2.5776,1.34779 -6.28579,-2.60367 -7.71584,-10.24034 -2.83209,-15.12406 l 3.09452,-3.09457 -1.78349,-4.99904 c -0.98087,-2.74947 -3.53431,-8.78686 -5.67429,-13.41641 -2.13999,-4.62955 -4.92218,-11.09111 -6.1827,-14.35902 -1.26063,-3.26792 -3.93953,-9.50667 -5.95335,-13.86389 -7.91401,-17.12392 -9.47468,-21.66715 -10.05033,-29.25724 -0.52148,-6.87418 -0.37849,-7.68861 1.78893,-10.19271 1.29568,-1.49685 6.34551,-4.485341 11.22183,-6.641066 9.57925,-4.234764 14.44171,-8.166334 17.54207,-14.183884 l 1.97283,-3.829067 -3.21949,-6.539714 c -3.44715,-7.002163 -10.59181,-14.658653 -17.23934,-18.474261 -6.12616,-3.516397 -13.80546,-4.016338 -22.99593,-1.497112 -4.23641,1.161269 -8.59393,2.904623 -9.68323,3.874114 -2.33943,2.082148 -16.68667,10.984704 -17.7028,10.984704 -0.38601,0 -3.10828,1.777736 -6.0495,3.950514 -2.94123,2.172788 -10.14787,6.889361 -16.01487,10.481266 -5.867,3.591905 -11.27788,7.402493 -12.02415,8.467962 -0.83342,1.189918 -2.0269,1.724569 -3.09373,1.385963 -0.95532,-0.303193 -3.35407,0.124419 -5.33056,0.950261 -3.76497,1.573105 -6.45336,1.986962 -5.27907,0.812681 0.37886,-0.37887 1.23297,-0.78024 1.89802,-0.891943 3.28113,-0.551119 6.6557,-2.491568 6.6557,-3.827175 0,-0.822733 -1.70031,-2.621117 -3.7785,-3.996414 -11.55748,-7.648349 -26.83815,-8.570149 -39.29856,-2.370655 -26.04274,12.957197 -38.63963,25.833396 -51.56031,52.703596 -4.57816,9.52088 -5.42426,12.15819 -5.56746,17.35405 -0.13175,4.78041 0.27132,6.72094 1.83396,8.82947 3.86089,5.20962 9.99396,8.91016 19.85118,11.97771 12.3059,3.82957 25.49542,12.88543 22.75641,15.62444 -0.30384,0.30384 -2.06926,-0.60451 -3.92315,-2.01853 -3.51718,-2.68269 -4.68159,-2.53271 -4.68159,0.60301 0,2.52017 -6.29019,12.19974 -9.11375,14.02458 -1.25094,0.80848 -5.17101,2.99141 -8.71125,4.85099 -8.69272,4.56598 -12.87361,9.97178 -12.87361,16.64531 0,5.44311 2.11408,20.47106 4.42567,31.46001 2.89464,13.76064 1.73354,21.63016 -4.77003,32.32939 -4.1821,6.88011 -4.42843,8.91113 -1.46358,12.06707 2.93711,3.1264 6.16713,2.87893 12.09226,-0.92645 3.75791,-2.41349 6.49173,-3.34224 10.93102,-3.71354 l 5.91984,-0.49514 0.30598,-7.92222 c 0.51699,-13.38591 6.85299,-23.01707 20.05286,-30.48181 10.11366,-5.71943 11.40535,-8.10165 11.39285,-21.01141 -0.009,-9.6205 -2.0608,-26.034 -4.40185,-35.21809 -2.73153,-10.71605 0.10729,-15.40312 9.89707,-16.34068 13.5988,-1.30234 16.91018,-2.45853 22.47304,-7.84657 7.75785,-7.51409 6.8979,-12.10894 -2.66863,-14.2584 -6.39915,-1.4378 -8.94186,-5.89689 -5.3887,-9.45005 3.25417,-3.25416 10.58582,-1.2904 21.36777,5.72324 5.97236,3.885 25.24405,9.44485 33.02674,9.52814 3.72355,0.0398 4.50775,-0.52227 13.07573,-9.37285 5.01308,-5.17839 9.77127,-9.41524 10.57369,-9.41524 0.80242,0 2.43252,1.22547 3.62233,2.72326 1.90995,2.40413 2.0985,3.53561 1.60901,9.65521 -0.30491,3.81257 -1.91451,12.41783 -3.57689,19.1228 -3.15007,12.70494 -3.64669,19.40354 -1.9964,26.92511 1.38134,6.29583 5.66697,16.38701 9.67304,22.77638 3.32456,5.30251 17.44235,19.69855 35.81626,36.52218 9.46715,8.66837 12.47026,12.2757 11.51128,13.82734 -0.31362,0.50751 -4.85216,-3.28323 -10.08548,-8.42386 -12.9664,-12.73657 -14.5353,-11.78599 -9.3509,5.66549 1.96491,6.61398 4.62232,12.7747 7.50621,17.40172 5.10359,8.18839 9.59658,18.55187 12.3857,28.56846 3.23038,11.60148 2.24099,29.18702 -2.5871,45.98152 -1.88995,6.57417 -2.14485,8.63252 -1.20874,9.76049 1.89678,2.28546 8.41568,0.96003 17.29233,-3.5159 z"
       id="path3360"
       inkscape:connector-curvature="0" />
  </g>
</svg>
